<?xml version="1.0" standalone="no"?>
<!DOCTYPE svg PUBLIC "-//W3C//DTD SVG 20010904//EN"
 "http://www.w3.org/TR/2001/REC-SVG-20010904/DTD/svg10.dtd">
<svg version="1.0" xmlns="http://www.w3.org/2000/svg"
 width="312.000000pt" height="312.000000pt" viewBox="0 0 312.000000 312.000000"
 preserveAspectRatio="xMidYMid meet">
<metadata>
Created by potrace 1.11, written by Peter Selinger 2001-2013
</metadata>
<g transform="translate(0.000000,312.000000) scale(0.100000,-0.100000)"
fill="#000000" stroke="none">
<path d="M1480 3100 c0 -19 -7 -20 -100 -20 -93 0 -100 -1 -100 -20 0 -18 -7
-20 -60 -20 -53 0 -60 -2 -60 -20 0 -17 -7 -20 -40 -20 -33 0 -40 -3 -40 -20
0 -17 -7 -20 -40 -20 -33 0 -40 -3 -40 -20 0 -13 -7 -20 -20 -20 -13 0 -20 -7
-20 -20 0 -13 -7 -20 -20 -20 -13 0 -20 -7 -20 -20 0 -13 -7 -20 -20 -20 -13
0 -20 -7 -20 -20 0 -13 -7 -20 -20 -20 -13 0 -20 -7 -20 -20 0 -13 -7 -20 -20
-20 -13 0 -20 -7 -20 -20 0 -18 -7 -20 -60 -20 -53 0 -60 -2 -60 -20 0 -17 -7
-20 -40 -20 -33 0 -40 -3 -40 -20 0 -17 -7 -20 -40 -20 -33 0 -40 -3 -40 -20
0 -17 -7 -20 -40 -20 -33 0 -40 -3 -40 -20 0 -17 -7 -20 -40 -20 -33 0 -40 -3
-40 -20 0 -17 -7 -20 -40 -20 -33 0 -40 -3 -40 -20 0 -13 -7 -20 -20 -20 -13
0 -20 -7 -20 -20 0 -13 -7 -20 -20 -20 -13 0 -20 -7 -20 -20 0 -13 -7 -20 -20
-20 -13 0 -20 -7 -20 -20 0 -13 -7 -20 -20 -20 -17 0 -20 -7 -20 -40 0 -33 3
-40 20 -40 13 0 20 -7 20 -20 0 -17 7 -20 40 -20 33 0 40 -3 40 -20 0 -17 7
-20 40 -20 33 0 40 -3 40 -20 0 -17 7 -20 40 -20 33 0 40 -3 40 -20 0 -18 7
-20 80 -20 73 0 80 -2 80 -20 0 -18 7 -20 60 -20 l60 0 0 -60 c0 -53 -2 -60
-20 -60 -18 0 -20 -7 -20 -80 0 -73 2 -80 20 -80 13 0 20 -7 20 -20 0 -17 7
-20 40 -20 33 0 40 3 40 20 0 17 7 20 40 20 33 0 40 3 40 20 0 13 7 20 20 20
17 0 20 -7 20 -40 0 -33 3 -40 20 -40 13 0 20 -7 20 -20 0 -13 7 -20 20 -20
13 0 20 -7 20 -20 0 -17 7 -20 40 -20 33 0 40 -3 40 -20 0 -17 7 -20 40 -20
l40 0 0 -40 c0 -33 -3 -40 -20 -40 -18 0 -20 -7 -20 -60 0 -53 -2 -60 -20 -60
-18 0 -20 -7 -20 -80 0 -73 -2 -80 -20 -80 -18 0 -20 -7 -20 -80 0 -73 -2 -80
-20 -80 -18 0 -20 -7 -20 -80 0 -73 -2 -80 -20 -80 -18 0 -20 -7 -20 -60 0
-53 -2 -60 -20 -60 -17 0 -20 -7 -20 -40 0 -33 -3 -40 -20 -40 -17 0 -20 -7
-20 -40 0 -33 3 -40 20 -40 19 0 20 -7 20 -100 0 -93 1 -100 20 -100 13 0 20
-7 20 -20 0 -17 7 -20 40 -20 33 0 40 3 40 20 0 17 7 20 40 20 33 0 40 3 40
20 0 13 7 20 20 20 18 0 20 -7 20 -60 0 -53 2 -60 20 -60 17 0 20 -7 20 -40 0
-33 3 -40 20 -40 17 0 20 -7 20 -40 0 -33 3 -40 20 -40 18 0 20 -7 20 -80 l0
-80 100 0 100 0 0 180 0 180 100 0 c93 0 100 1 100 20 0 17 7 20 40 20 33 0
40 -3 40 -20 0 -13 -7 -20 -20 -20 -17 0 -20 -7 -20 -40 0 -33 -3 -40 -20 -40
-18 0 -20 -7 -20 -80 0 -73 2 -80 20 -80 13 0 20 -7 20 -20 0 -13 7 -20 20
-20 13 0 20 -7 20 -20 0 -19 7 -20 140 -20 133 0 140 -1 140 -20 0 -19 7 -20
120 -20 113 0 120 1 120 20 0 17 7 20 40 20 33 0 40 -3 40 -20 0 -13 7 -20 20
-20 13 0 20 -7 20 -20 0 -13 7 -20 20 -20 13 0 20 -7 20 -20 0 -19 7 -20 160
-20 153 0 160 1 160 20 0 17 7 20 40 20 33 0 40 3 40 20 0 13 7 20 20 20 13 0
20 7 20 20 0 13 7 20 20 20 19 0 20 7 20 100 0 93 -1 100 -20 100 -17 0 -20 7
-20 40 0 33 -3 40 -20 40 -13 0 -20 7 -20 20 0 17 -7 20 -40 20 -33 0 -40 3
-40 20 0 19 -7 20 -140 20 -133 0 -140 1 -140 20 0 18 -7 20 -60 20 l-60 0 0
260 c0 253 1 260 20 260 13 0 20 7 20 20 0 13 7 20 20 20 13 0 20 7 20 20 0
13 7 20 20 20 13 0 20 7 20 20 0 13 7 20 20 20 17 0 20 7 20 40 l0 40 40 0
c33 0 40 3 40 20 0 17 7 20 40 20 33 0 40 -3 40 -20 0 -17 7 -20 40 -20 33 0
40 3 40 20 0 13 7 20 20 20 17 0 20 7 20 40 0 33 -3 40 -20 40 -13 0 -20 7
-20 20 0 17 7 20 40 20 33 0 40 3 40 20 0 13 7 20 20 20 17 0 20 7 20 40 0 33
-3 40 -20 40 -13 0 -20 7 -20 20 0 18 -7 20 -60 20 -53 0 -60 2 -60 20 0 13 7
20 20 20 13 0 20 7 20 20 0 13 7 20 20 20 17 0 20 7 20 40 0 33 -3 40 -20 40
-13 0 -20 7 -20 20 0 18 -7 20 -60 20 -53 0 -60 -2 -60 -20 0 -13 -7 -20 -20
-20 -13 0 -20 -7 -20 -20 0 -13 -7 -20 -20 -20 -13 0 -20 -7 -20 -20 0 -13 -7
-20 -20 -20 -13 0 -20 7 -20 20 0 13 -7 20 -20 20 -13 0 -20 7 -20 20 0 17 -7
20 -40 20 -33 0 -40 3 -40 20 0 13 7 20 20 20 13 0 20 7 20 20 0 13 7 20 20
20 17 0 20 7 20 40 0 33 3 40 20 40 17 0 20 7 20 40 l0 40 60 0 c53 0 60 2 60
20 0 13 7 20 20 20 17 0 20 7 20 40 0 33 -3 40 -20 40 -17 0 -20 7 -20 40 0
33 -3 40 -20 40 -17 0 -20 7 -20 40 0 33 3 40 20 40 17 0 20 7 20 40 l0 40 40
0 c33 0 40 3 40 20 0 17 7 20 40 20 33 0 40 3 40 20 0 13 7 20 20 20 13 0 20
7 20 20 0 13 7 20 20 20 13 0 20 7 20 20 0 13 7 20 20 20 13 0 20 7 20 20 0
13 7 20 20 20 13 0 20 7 20 20 0 13 7 20 20 20 17 0 20 7 20 40 0 33 3 40 20
40 18 0 20 7 20 60 0 53 -2 60 -20 60 -13 0 -20 7 -20 20 0 17 -7 20 -40 20
-33 0 -40 3 -40 20 0 18 -7 20 -60 20 -53 0 -60 2 -60 20 0 18 -7 20 -60 20
-53 0 -60 2 -60 20 0 18 -7 20 -80 20 -73 0 -80 2 -80 20 0 19 -7 20 -140 20
-133 0 -140 1 -140 20 0 17 -7 20 -40 20 -33 0 -40 3 -40 20 0 18 -7 20 -60
20 -53 0 -60 2 -60 20 0 18 -7 20 -80 20 -73 0 -80 2 -80 20 0 19 -7 20 -180
20 -173 0 -180 -1 -180 -20z m720 -1360 c0 -18 7 -20 80 -20 73 0 80 -2 80
-20 0 -13 -7 -20 -20 -20 -17 0 -20 -7 -20 -40 0 -33 3 -40 20 -40 19 0 20 -7
20 -120 l0 -120 -40 0 -40 0 0 40 c0 33 -3 40 -20 40 -17 0 -20 7 -20 40 0 33
-3 40 -20 40 -17 0 -20 7 -20 40 0 33 -3 40 -20 40 -17 0 -20 7 -20 40 0 33
-3 40 -20 40 -17 0 -20 7 -20 40 l0 40 40 0 c33 0 40 -3 40 -20z"/>
</g>
</svg>
