<?xml version="1.0" encoding="UTF-8" standalone="no"?>
<!-- Created with Inkscape (http://www.inkscape.org/) -->

<svg
   xmlns:dc="http://purl.org/dc/elements/1.1/"
   xmlns:cc="http://creativecommons.org/ns#"
   xmlns:rdf="http://www.w3.org/1999/02/22-rdf-syntax-ns#"
   xmlns:svg="http://www.w3.org/2000/svg"
   xmlns="http://www.w3.org/2000/svg"
   xmlns:sodipodi="http://sodipodi.sourceforge.net/DTD/sodipodi-0.dtd"
   xmlns:inkscape="http://www.inkscape.org/namespaces/inkscape"
   width="82.157005mm"
   height="32.451382mm"
   viewBox="0 0 82.157005 32.451382"
   version="1.1"
   id="svg403"
   sodipodi:docname="logo_white.svg"
   inkscape:version="0.92.2 5c3e80d, 2017-08-06">
  <defs
     id="defs397" />
  <sodipodi:namedview
     id="base"
     pagecolor="#ffffff"
     bordercolor="#666666"
     borderopacity="1.0"
     inkscape:pageopacity="0.0"
     inkscape:pageshadow="2"
     inkscape:zoom="2.8284271"
     inkscape:cx="144.98043"
     inkscape:cy="54.466947"
     inkscape:document-units="mm"
     inkscape:current-layer="layer1"
     showgrid="false"
     fit-margin-top="0"
     fit-margin-left="0"
     fit-margin-right="0"
     fit-margin-bottom="0"
     inkscape:window-width="1916"
     inkscape:window-height="1056"
     inkscape:window-x="0"
     inkscape:window-y="20"
     inkscape:window-maximized="1" />
  <metadata
     id="metadata400">
    <rdf:RDF>
      <cc:Work
         rdf:about="">
        <dc:format>image/svg+xml</dc:format>
        <dc:type
           rdf:resource="http://purl.org/dc/dcmitype/StillImage" />
        <dc:title></dc:title>
      </cc:Work>
    </rdf:RDF>
  </metadata>
  <g
     inkscape:label="Layer 1"
     inkscape:groupmode="layer"
     id="layer1"
     transform="translate(-94.236974,-104.6374)">
    <g
       id="g4173"
       style="font-style:normal;font-weight:normal;font-size:40px;line-height:125%;font-family:sans-serif;letter-spacing:0px;word-spacing:0px;display:inline;fill:#ffffff;fill-opacity:1;stroke:none;stroke-width:1.39999998;stroke-linecap:butt;stroke-linejoin:miter;stroke-miterlimit:4;stroke-dasharray:none;stroke-opacity:1"
       transform="matrix(0.28222223,0,0,0.28222223,119.44622,-7.043175)"
       inkscape:export-filename="C:\Users\Simon\Documents\box_back_test.png"
       inkscape:export-xdpi="149.95688"
       inkscape:export-ydpi="149.95688">
      <path
         id="path4175"
         style="font-style:normal;font-variant:normal;font-weight:normal;font-stretch:normal;font-size:80px;font-family:SnapHand;-inkscape-font-specification:SnapHand;letter-spacing:0px;fill:#ffffff;fill-opacity:1;stroke:none;stroke-width:1.39999998;stroke-miterlimit:4;stroke-dasharray:none;stroke-opacity:1"
         d="m 80.355878,406.75857 q 0.4,-1.44 0.64,-2.88 0.24,-1.52 0.64,-2.96 0.8,-2.64 2.32,-3.92 1.52,-1.28 3.12,-1.28 1.84,0 3.28,1.52 1.52,1.52 1.52,4.48 0,1.28 -0.32,2.64 -0.24,1.28 -0.56,2.4 1.68,0 3.28,0.24 1.6,0.24 2.72,0.88 1.2,0.56 1.84,1.6 0.72,1.04 0.64,2.56 -0.08,1.84 -0.8,2.88 -0.72,1.04 -1.92,1.6 -1.2,0.48 -2.8,0.64 -1.52,0.16 -3.28,0.16 -0.96,0 -2.16,-0.24 -0.4,1.84 -0.64,3.6 -0.16,1.76 -0.16,3.6 0,5.92 2.32,11.44 2.32,5.44 7.76,9.44 1.76,1.44 1.76,3.44 0,1.04 -0.48,2 -0.4,1.04 -1.2,1.84 -0.72,0.8 -1.76,1.28 -0.96,0.56 -2.08,0.56 -1.12,0 -2.16,-0.56 -4,-2 -6.8,-5.12 -2.72,-3.04 -4.56,-6.72 -1.76,-3.76 -2.56,-7.92 -0.8,-4.24 -0.8,-8.48 0,-2.16 0.16,-4.24 0.24,-2.08 0.64,-4.16 -3.84,-0.16 -5.6,-1.68 -1.68,-1.52 -1.68,-3.36 0,-2.08 1.92,-3.76 1.92,-1.76 5.28,-1.76 1.12,0 2.48,0.24 z"
         inkscape:connector-curvature="0" />
      <path
         sodipodi:nodetypes="cccccscsccccccccccccccccccsccc"
         inkscape:connector-curvature="0"
         id="path4177"
         style="font-style:normal;font-variant:normal;font-weight:normal;font-stretch:normal;font-size:80px;font-family:SnapHand;-inkscape-font-specification:SnapHand;letter-spacing:0px;fill:#ffffff;fill-opacity:1;stroke:none;stroke-width:1.39999998;stroke-miterlimit:4;stroke-dasharray:none;stroke-opacity:1"
         d="m 126.07503,407.79857 c 2.13333,1.06667 3.84,2.72 5.12,4.96 1.33333,2.18667 2.24,4.66667 2.72,7.44 0.48,2.72 0.56,5.57333 0.24,8.56 -0.32,2.93333 -1.06667,5.65333 -2.24,8.16 -1.17333,2.45333 -2.77333,4.53333 -4.8,6.24 -2.02667,1.70667 -4.45333,2.69333 -7.28,2.96 -2.56,0.26667 -4.90667,-0.0267 -7.04,-0.88 -2.13333,-0.85333 -4.05333,-2.08 -5.76,-3.68 -1.65333,-1.65333 -3.09333,-3.6 -4.32,-5.84 -1.22667,-2.29333 -2.18667,-4.72 -2.880003,-7.28 -0.800003,-2.93333 -0.986672,-5.62667 -0.560005,-8.08 0.480003,-2.45333 1.360008,-4.58667 2.640008,-6.4 1.33333,-1.86667 2.96,-3.41333 4.88,-4.64 1.97333,-1.22667 4.05333,-2.10667 6.24,-2.64 2.18667,-0.58667 4.4,-0.77333 6.64,-0.56 2.29333,0.16 4.42667,0.72 6.4,1.68 z m -4.2475,9.01688 c -0.53333,-0.32 -1.73958,-0.68771 -2.775,-0.72813 -1.04458,-0.0937 -2.6493,-0.10675 -3.59253,0.0823 -1.01251,0.2553 -1.46647,0.40609 -2.4798,0.88609 -2.46001,1.37333 -3.68907,3.79039 -3.77678,6.1113 0,1.6 0.15161,3.13828 0.63161,4.79161 0.53333,1.65333 1.22667,3.17333 2.08,4.56 1.71552,2.41939 4.66724,4.00567 7.68,3.6 1.67393,-0.29409 2.48,-1.22667 3.28,-2.4 0.85333,-1.17333 1.46667,-2.61333 1.84,-4.32 0.37333,-1.70667 0.48,-3.41333 0.32,-5.12 -0.10667,-1.70667 -0.53146,-3.36271 -1.04,-4.64 -0.45261,-1.08861 -0.8931,-2.04773 -2.1675,-2.82317 z" />
      <path
         sodipodi:nodetypes="ccsccccssssscccsccsssccccccsccccccsccc"
         inkscape:connector-curvature="0"
         id="path4179"
         style="font-style:normal;font-variant:normal;font-weight:normal;font-stretch:normal;font-size:80px;font-family:SnapHand;-inkscape-font-specification:SnapHand;letter-spacing:0px;fill:#ffffff;fill-opacity:1;stroke:none;stroke-width:1.39999998;stroke-miterlimit:4;stroke-dasharray:none;stroke-opacity:1"
         d="m 137.24963,404.83857 c 0.26667,-1.54667 0.93333,-2.66667 2,-3.36 1.06667,-0.74667 2.18667,-1.12 3.36,-1.12 1.22667,0 2.26667,0.48 3.12,1.44 0.90667,0.96 1.36,2.26667 1.36,3.92 0.0227,2.41091 0.0392,5.31511 0,8.24 0.96,-0.10667 1.84,-0.26667 2.64,-0.48 0.85333,-0.21333 1.84,-0.32 2.96,-0.32 2.29333,0 4.29333,0.37333 6,1.12 1.70667,0.74667 3.12,1.76 4.24,3.04 1.12,1.28 1.94667,2.77333 2.48,4.48 0.53333,1.70667 0.8,3.49333 0.8,5.36 0,2.34667 -0.37333,4.64 -1.12,6.88 -0.69333,2.24 -1.68,4.24 -2.96,6 -1.22667,1.70667 -2.72,3.09333 -4.48,4.16 -1.70667,1.01333 -3.54667,1.52 -5.52,1.52 -2.61333,0 -5.06667,-0.56 -7.36,-1.68 -0.48,0.37333 -0.93333,0.72 -1.36,1.04 -0.37333,0.32 -0.82667,0.48 -1.36,0.48 -1.22667,0 -2.37333,-0.45333 -3.44,-1.36 -1.06667,-0.90667 -1.6,-2.26667 -1.6,-4.08 0,-2.72 -0.0533,-5.6 -0.16,-8.64 -0.16,-3.04 -0.26667,-6.08 -0.32,-9.12 -0.0533,-3.09333 -0.0267,-6.13333 0.08,-9.12 0.0533,-2.98667 0.26667,-5.78667 0.64,-8.4 z m 9.36,22.56 c -0.0442,2.11167 0.29333,5.17333 1.2,6.56 0.96,1.33333 2.05333,2 3.28,2 0.69333,0 1.33333,-0.21333 1.92,-0.64 0.64,-0.42667 1.17333,-0.98667 1.6,-1.68 0.42667,-0.74667 0.72,-1.57333 0.88,-2.48 0.21333,-0.96 0.25427,-1.92 0.24,-2.88 -0.006,-1.4412 -0.46746,-3.48826 -1.04,-4.56 -0.32,-0.64 -0.8,-1.12 -1.44,-1.44 -0.58667,-0.37333 -1.41333,-0.56 -2.48,-0.56 -0.58667,0 -1.60625,0.10854 -2.24625,0.48187 -0.64,0.32 -1.03188,0.53063 -1.75375,1.03813 -0.12006,1.0842 -0.14813,2.04036 -0.16,4.16 z" />
      <path
         sodipodi:nodetypes="cssccsscsccccccscsccsccccsccccscscccccscccccscc"
         inkscape:connector-curvature="0"
         id="path4181"
         style="font-style:normal;font-variant:normal;font-weight:normal;font-stretch:normal;font-size:80px;font-family:SnapHand;-inkscape-font-specification:SnapHand;letter-spacing:0px;fill:#ffffff;fill-opacity:1;stroke:none;stroke-width:1.39999998;stroke-miterlimit:4;stroke-dasharray:none;stroke-opacity:1"
         d="m 167.94338,412.75857 c -0.16,-1.28 0,-2.34667 0.48,-3.2 0.48,-0.85333 1.12,-1.49333 1.92,-1.92 0.8,-0.42667 1.68,-0.64 2.64,-0.64 0.96,-0.0533 1.86667,0.13333 2.72,0.56 0.85333,0.37333 1.54667,0.96 2.08,1.76 0.53333,0.8 0.8,1.78667 0.8,2.96 0,0.32 -0.0533,1.33333 -0.16,3.04 -0.0533,1.65333 -0.08,3.52 -0.08,5.6 v 4.8 c 0.0533,1.65333 0.16,3.2 0.32,4.64 0.22041,2.14571 0.6248,4.48259 3.07375,4.70625 1.99243,0.0884 2.60249,-0.50969 3.34916,-1.20834 0.8,-0.90667 0.96226,-2.02668 1.21596,-3.36001 0.19656,-1.42172 0.36113,-2.72457 0.36113,-4.2179 0.0533,-1.54667 0.08,-2.93333 0.08,-4.16 0,-1.22667 -0.0267,-2.4 -0.08,-3.52 v -3.2 c 0,-1.92 0.29333,-3.38667 0.88,-4.4 0.58667,-1.06667 1.30667,-1.76 2.16,-2.08 0.90667,-0.37333 1.86667,-0.4 2.88,-0.08 1.01333,0.32 1.92,0.90667 2.72,1.76 0.85333,0.8 1.52,1.81333 2,3.04 0.48,1.17333 0.66667,2.50667 0.56,4 0,1.06667 -0.10667,2.21333 -0.32,3.44 -0.16,1.17333 -0.24,2.45333 -0.24,3.84 0,1.86667 0.08,3.6 0.24,5.2 0.21333,1.54667 0.48,3.09333 0.8,4.64 0.37333,1.49333 0.8,3.01333 1.28,4.56 0.53333,1.49333 1.09333,3.12 1.68,4.88 0.32,1.06667 0.48,1.97333 0.48,2.72 0,1.70667 -0.56,3.06667 -1.68,4.08 -1.06667,1.06667 -2.29333,1.6 -3.68,1.6 -1.12,0 -2.08,-0.24 -2.88,-0.72 -0.74667,-0.48 -1.41333,-1.17333 -2,-2.08 -0.53333,-0.85333 -1.01333,-1.89333 -1.44,-3.12 -0.37333,-1.22667 -0.74667,-2.56 -1.12,-4 -1.06667,1.12 -2.29333,2 -3.68,2.64 -1.38667,0.58667 -2.69333,0.88 -3.92,0.88 -1.65333,0 -3.22667,-0.37333 -4.72,-1.12 -1.44,-0.74667 -2.72,-1.76 -3.84,-3.04 -1.12,-1.33333 -2.05333,-2.85333 -2.8,-4.56 -0.74667,-1.76 -1.2,-3.62667 -1.36,-5.6 -0.37333,-1.65333 -0.58667,-3.33333 -0.64,-5.04 -0.10667,-1.76 -0.16,-3.52 -0.16,-5.28 0,-1.54667 0.0267,-3.04 0.08,-4.48 z" />
    </g>
    <g
       transform="matrix(1.3852352,0,0,1.2752263,-29.045086,-481.23106)"
       style="font-style:normal;font-weight:normal;font-size:9.02453327px;line-height:125%;font-family:sans-serif;letter-spacing:0px;word-spacing:0px;writing-mode:lr-tb;display:inline;fill:#ffffff;fill-opacity:1;stroke:none;stroke-width:1px;stroke-linecap:butt;stroke-linejoin:miter;stroke-opacity:1"
       id="flowRoot4160"
       inkscape:export-filename="C:\Users\Simon\Documents\box_back_test.png"
       inkscape:export-xdpi="149.95688"
       inkscape:export-ydpi="149.95688">
      <path
         d="m 112.00333,476.01866 c 0.20526,-0.15395 0.41565,-0.23093 0.63118,-0.23093 0.23605,0 0.41053,0.10263 0.52343,0.3079 0.13342,-0.17447 0.22579,-0.30276 0.2771,-0.38487 0.0513,-0.0924 0.14883,-0.13855 0.2925,-0.13855 0.22579,0 0.36948,0.12316 0.43106,0.36947 0,0.3079 -0.0154,0.6158 -0.0462,0.92369 -0.0205,0.30789 -0.0308,0.61579 -0.0308,0.92369 v 0.0462 l 0.10777,-0.10776 c 0.0411,-0.0411 0.10264,-0.0975 0.18473,-0.16934 0.0821,-0.0718 0.16935,-0.13856 0.26172,-0.20014 0.10263,-0.0718 0.20526,-0.12829 0.30789,-0.16934 0.10263,-0.0513 0.20013,-0.077 0.2925,-0.077 0.0718,0 0.10777,0.0257 0.10777,0.077 0,0.14369 -0.0667,0.28224 -0.20014,0.41566 -0.13342,0.12316 -0.25658,0.24119 -0.36947,0.35408 -0.11289,0.11289 -0.22579,0.23092 -0.33869,0.35408 -0.10263,0.11289 -0.20526,0.23092 -0.30789,0.35408 0.0205,0.40027 0.0462,0.7954 0.077,1.1854 0.0308,0.39 0.0462,0.78 0.0462,1.17 0,0.31816 -0.0154,0.63632 -0.0462,0.95448 -0.0205,0.31816 -0.0616,0.65171 -0.12316,1.00066 -0.0411,0.21553 -0.11804,0.43619 -0.23092,0.66198 -0.10263,0.22579 -0.23605,0.43105 -0.40026,0.61579 -0.15395,0.18474 -0.33869,0.33356 -0.55422,0.44645 -0.20526,0.11289 -0.43105,0.16934 -0.67737,0.16934 -0.27711,0 -0.5029,-0.041 -0.67737,-0.12316 -0.17447,-0.0821 -0.31303,-0.18986 -0.41566,-0.32329 -0.10263,-0.12315 -0.17447,-0.26684 -0.21552,-0.43105 -0.0411,-0.15395 -0.0616,-0.30276 -0.0616,-0.44645 0,-0.13342 0.0103,-0.26684 0.0308,-0.40026 0.0205,-0.13343 0.0411,-0.27198 0.0616,-0.41566 0.0513,-0.27711 0.14883,-0.585 0.2925,-0.92369 0.14368,-0.33869 0.30789,-0.67737 0.49263,-1.01606 0.195,-0.33869 0.40026,-0.66198 0.61579,-0.96987 0.21553,-0.30789 0.42079,-0.57987 0.61579,-0.81592 l 0.21553,-0.27711 c -0.0103,-0.14369 -0.0154,-0.2925 -0.0154,-0.44645 v -0.46184 -0.40027 c -0.32843,0.34895 -0.67225,0.69277 -1.03146,1.03145 -0.35921,0.33869 -0.75947,0.59014 -1.20079,0.75435 -0.0411,0.0103 -0.0873,0.0154 -0.13855,0.0154 -0.10263,0 -0.195,-0.041 -0.27711,-0.12315 -0.0821,-0.0821 -0.12316,-0.22066 -0.12316,-0.41566 0,-0.21553 0.0564,-0.45671 0.16935,-0.72356 0.11289,-0.26684 0.25145,-0.52342 0.41566,-0.76974 0.17447,-0.25658 0.35408,-0.4875 0.53881,-0.69276 0.18474,-0.21553 0.34895,-0.37461 0.49264,-0.47724 z m 1.26237,5.80383 c 0.0103,-0.14368 0.0154,-0.28736 0.0154,-0.43105 0.0103,-0.13342 0.0154,-0.27197 0.0154,-0.41566 0,-0.41053 -0.0154,-0.82619 -0.0462,-1.24698 -0.25658,0.35921 -0.48237,0.73895 -0.67737,1.13922 -0.195,0.40026 -0.36947,0.80052 -0.52342,1.20079 -0.0205,0.0411 -0.0513,0.11291 -0.0924,0.21553 -0.0308,0.10263 -0.0667,0.21552 -0.10776,0.33868 l -0.0924,0.40027 c -0.0308,0.14368 -0.0462,0.2771 -0.0462,0.40026 0,0.14369 0.0308,0.26171 0.0924,0.35408 0.0616,0.0924 0.16936,0.13855 0.32329,0.13855 0.24632,0 0.44132,-0.077 0.58501,-0.23092 0.14368,-0.15395 0.25144,-0.33868 0.32329,-0.55421 0.0821,-0.21553 0.13342,-0.44645 0.15395,-0.69277 0.0308,-0.23605 0.0565,-0.44132 0.077,-0.61579 z m -2.00132,-3.71014 c 0.18473,-0.16421 0.42592,-0.38487 0.72355,-0.66198 0.3079,-0.28737 0.58501,-0.57987 0.83132,-0.8775 0.0566,-0.0828 0.0376,-0.1163 0.011,-0.16762 -0.0333,-0.0513 -0.072,-0.0942 -0.13393,-0.0942 -0.17447,0 -0.33868,0.0718 -0.49263,0.21552 -0.14369,0.13343 -0.27711,0.29764 -0.40027,0.49264 -0.12315,0.195 -0.23092,0.39513 -0.32329,0.6004 -0.0924,0.20526 -0.16421,0.36947 -0.21552,0.49263 z"
         style="font-style:normal;font-variant:normal;font-weight:normal;font-stretch:normal;font-size:15.3947916px;font-family:'Cheddar Jack';-inkscape-font-specification:'Cheddar Jack';text-align:center;writing-mode:lr-tb;text-anchor:middle;fill:#ffffff;fill-opacity:1"
         id="path4332"
         inkscape:connector-curvature="0"
         sodipodi:nodetypes="csccsccscccccsscsccsscccccscccsscccsccsccccscscccccccscsccccssscccccccccsccccc" />
      <path
         style="font-style:normal;font-variant:normal;font-weight:normal;font-stretch:normal;font-size:15.3947916px;font-family:'Cheddar Jack';-inkscape-font-specification:'Cheddar Jack';text-align:center;writing-mode:lr-tb;text-anchor:middle;fill:#ffffff;fill-opacity:1;stroke-width:5.02334404px"
         d="m 145.46875,66.333984 c -0.42979,0 -0.8064,0.148416 -1.12891,0.445313 -0.32251,0.2968 -0.48437,0.643361 -0.48437,1.039062 0,0.346251 0.16186,0.71758 0.48437,1.113282 0.37612,0.346395 0.77915,0.519531 1.20899,0.519531 0.42978,0 0.77829,-0.150369 1.04687,-0.447266 0.32251,-0.346299 0.48438,-0.740201 0.48438,-1.185547 0,-0.346251 -0.13376,-0.717579 -0.40235,-1.113281 -0.3224,-0.247253 -0.72522,-0.371094 -1.20898,-0.371094 z m 17.60352,8.087891 c -0.59104,0 -1.10337,0.198048 -1.53321,0.59375 -0.42983,0.643051 -1.01919,1.680731 -1.77148,3.115234 -0.7523,1.385053 -1.53188,2.870222 -2.33789,4.453125 -0.80601,1.582952 -1.61196,3.115656 -2.41797,4.59961 -0.7523,1.484002 -1.36975,2.622611 -1.85352,3.414062 -0.21719,0.465726 -3.05982,2.424198 -4.46679,3.041016 -1.61202,0.692743 -3.062,1.039062 -4.35157,1.039062 -0.4836,0 -0.91315,-0.07421 -1.28906,-0.222656 -0.5913,-0.04945 -0.88672,-0.767291 -0.88672,-2.152344 0,-1.286103 0.18854,-2.967367 0.56446,-5.044922 0.42989,-2.077554 0.85922,-4.328099 1.28906,-6.751953 0,-0.939851 -0.29568,-1.410156 -0.88672,-1.410156 -0.48361,0 -1.0486,0.37128 -1.69336,1.113281 -0.85973,1.879704 -1.69204,3.882713 -2.49805,6.009766 -0.80585,2.077555 -1.20898,4.47666 -1.20898,7.197266 0,1.484002 0.34835,2.719682 1.04687,3.708984 0.7523,0.939852 1.93491,1.410156 3.54688,1.410156 1.39705,0 3.08998,-0.396048 5.07812,-1.1875 1.98815,-0.840902 4.35337,-2.299398 7.09375,-4.376953 0.60956,-0.552497 1.99141,-2.332138 2.69164,-3.486333 0.59104,-0.890401 1.1824,-1.83101 1.77344,-2.820313 0.59104,-1.038801 1.12756,-2.026945 1.61133,-2.966796 0.53732,-0.939852 1.02133,-1.756669 1.45117,-2.449219 0.42978,-0.741905 0.75161,-1.261697 0.96679,-1.558594 0.91345,1.335602 1.55964,2.573235 1.93555,3.710938 0.37623,1.137702 0.56445,2.373382 0.56445,3.708984 0,0.890353 -0.0809,1.880498 -0.24218,2.96875 -0.10765,0.840902 -0.29587,1.680582 -0.56446,2.521484 -0.26858,0.840903 -0.40234,1.682536 -0.40234,2.523438 0,0.742001 0.26736,1.558866 0.80469,2.449219 0.59109,0.841095 1.37073,1.261718 2.33789,1.261718 h 0.80664 c 0.69852,-0.247301 1.63818,-0.61863 2.82031,-1.113281 1.18213,-0.4452 2.31007,-0.940273 3.38477,-1.484375 1.12841,-0.54415 2.09633,-1.063942 2.90234,-1.558594 0.80585,-0.54415 1.20899,-1.014454 1.20899,-1.410156 -1e-5,-0.296704 -0.10709,-0.569153 -0.32227,-0.816406 -0.21492,-0.247253 -0.53696,-0.371094 -0.9668,-0.371094 -0.21497,0 -0.4313,0.04963 -0.64648,0.148438 l -3.70703,1.335937 c -1.23585,0.445104 -2.4975,0.791809 -3.78711,1.039063 0.42978,-2.077555 0.77829,-3.783539 1.04687,-5.119141 0.32251,-1.335602 0.48438,-2.548467 0.48438,-3.636719 0,-0.890401 -0.10709,-1.705264 -0.32227,-2.447265 -0.21492,-0.791452 -0.56506,-1.583549 -1.04883,-2.375 -0.4836,-0.840903 -1.10122,-1.732024 -1.85351,-2.671875 -0.75224,-0.989303 -1.66554,-2.150727 -2.74024,-3.486328 -0.59104,-0.296897 -1.12756,-0.445313 -1.61132,-0.445313 z"
         transform="matrix(0.19100246,0,0,0.20747951,88.997204,459.42313)"
         id="path4334"
         inkscape:connector-curvature="0"
         sodipodi:nodetypes="scscscscscccccccscsccsccscsccccccccsccscsccccccsccccsccccsc" />
      <path
         d="m 126.63175,472.26233 q -0.10777,0.53882 -0.35408,1.29316 -0.24632,0.73895 -0.58501,1.49329 -0.32329,0.75435 -0.73895,1.43172 -0.41566,0.66198 -0.84671,1.03145 0.0154,0.40027 0.0924,0.80053 0.077,0.38487 0.43105,0.61579 0.69277,-0.13855 1.24698,-0.50803 0.55421,-0.38487 1.00066,-0.93908 0.10777,-0.077 0.18474,-0.077 0.10776,0 0.18474,0.077 0.077,0.0616 0.077,0.18474 0,0.0616 -0.0308,0.12316 -0.20013,0.2925 -0.50803,0.63118 -0.30789,0.32329 -0.67737,0.6004 -0.35408,0.27711 -0.73895,0.46184 -0.38487,0.16935 -0.73895,0.16935 -0.64658,0 -1.03145,-0.70816 -0.38487,-0.70816 -0.38487,-2.09369 0,-0.56961 0.12316,-1.4933 0.12316,-0.93908 0.40027,-1.89356 0.2925,-0.96987 0.75434,-1.80119 0.46184,-0.83132 1.13921,-1.21619 0.20014,-0.12316 0.36948,-0.12316 0.43105,0 0.585,0.33869 0.16934,0.33868 0.16934,0.70816 0,0.26171 -0.0462,0.49263 -0.0308,0.23092 -0.077,0.40027 z m -1.77041,1.03145 q -0.72355,1.66264 -0.76973,3.44843 0.21552,-0.30789 0.36947,-0.64658 0.15395,-0.33868 0.2925,-0.69276 0.15395,-0.36948 0.33869,-0.86211 0.18473,-0.50803 0.35408,-1.03145 0.16934,-0.53882 0.2771,-1.06224 0.12316,-0.53882 0.12316,-0.95448 -0.35408,0.38487 -0.56961,0.86211 -0.21552,0.46184 -0.41566,0.93908 z"
         style="font-style:normal;font-variant:normal;font-weight:normal;font-stretch:normal;font-size:15.3947916px;font-family:'Cheddar Jack';-inkscape-font-specification:'Cheddar Jack';text-align:center;writing-mode:lr-tb;text-anchor:middle;fill:#ffffff;fill-opacity:1"
         id="path4338"
         inkscape:connector-curvature="0" />
    </g>
    <g
       style="font-style:normal;font-weight:normal;font-size:40px;line-height:125%;font-family:sans-serif;letter-spacing:0px;word-spacing:0px;display:inline;fill:#ffffff;fill-opacity:1;stroke:none;stroke-width:1.39999998;stroke-linecap:butt;stroke-linejoin:miter;stroke-miterlimit:4;stroke-dasharray:none;stroke-opacity:1"
       id="text4212"
       transform="matrix(0.28222223,0,0,0.28222223,74.29067,-7.043175)"
       inkscape:export-filename="C:\Users\Simon\Documents\box_back_test.png"
       inkscape:export-xdpi="149.95688"
       inkscape:export-ydpi="149.95688">
      <path
         d="m 80.355878,406.75857 q 0.4,-1.44 0.64,-2.88 0.24,-1.52 0.64,-2.96 0.8,-2.64 2.32,-3.92 1.52,-1.28 3.12,-1.28 1.84,0 3.28,1.52 1.52,1.52 1.52,4.48 0,1.28 -0.32,2.64 -0.24,1.28 -0.56,2.4 1.68,0 3.28,0.24 1.6,0.24 2.72,0.88 1.2,0.56 1.84,1.6 0.72,1.04 0.64,2.56 -0.08,1.84 -0.8,2.88 -0.72,1.04 -1.92,1.6 -1.2,0.48 -2.8,0.64 -1.52,0.16 -3.28,0.16 -0.96,0 -2.16,-0.24 -0.4,1.84 -0.64,3.6 -0.16,1.76 -0.16,3.6 0,5.92 2.32,11.44 2.32,5.44 7.76,9.44 1.76,1.44 1.76,3.44 0,1.04 -0.48,2 -0.4,1.04 -1.2,1.84 -0.72,0.8 -1.76,1.28 -0.96,0.56 -2.08,0.56 -1.12,0 -2.16,-0.56 -4,-2 -6.8,-5.12 -2.72,-3.04 -4.56,-6.72 -1.76,-3.76 -2.56,-7.92 -0.8,-4.24 -0.8,-8.48 0,-2.16 0.16,-4.24 0.24,-2.08 0.64,-4.16 -3.84,-0.16 -5.6,-1.68 -1.68,-1.52 -1.68,-3.36 0,-2.08 1.92,-3.76 1.92,-1.76 5.28,-1.76 1.12,0 2.48,0.24 z"
         style="font-style:normal;font-variant:normal;font-weight:normal;font-stretch:normal;font-size:80px;font-family:SnapHand;-inkscape-font-specification:SnapHand;letter-spacing:0px;fill:#ffffff;fill-opacity:1;stroke:none;stroke-width:1.39999998;stroke-miterlimit:4;stroke-dasharray:none;stroke-opacity:1"
         id="path4390"
         inkscape:connector-curvature="0" />
      <path
         d="m 126.07503,407.79857 c 2.13333,1.06667 3.84,2.72 5.12,4.96 1.33333,2.18667 2.24,4.66667 2.72,7.44 0.48,2.72 0.56,5.57333 0.24,8.56 -0.32,2.93333 -1.06667,5.65333 -2.24,8.16 -1.17333,2.45333 -2.77333,4.53333 -4.8,6.24 -2.02667,1.70667 -4.45333,2.69333 -7.28,2.96 -2.56,0.26667 -4.90667,-0.0267 -7.04,-0.88 -2.13333,-0.85333 -4.05333,-2.08 -5.76,-3.68 -1.65333,-1.65333 -3.09333,-3.6 -4.32,-5.84 -1.22667,-2.29333 -2.18667,-4.72 -2.880003,-7.28 -0.800003,-2.93333 -0.986672,-5.62667 -0.560005,-8.08 0.480003,-2.45333 1.360008,-4.58667 2.640008,-6.4 1.33333,-1.86667 2.96,-3.41333 4.88,-4.64 1.97333,-1.22667 4.05333,-2.10667 6.24,-2.64 2.18667,-0.58667 4.4,-0.77333 6.64,-0.56 2.29333,0.16 4.42667,0.72 6.4,1.68 z m -4.2475,9.01688 c -0.53333,-0.32 -1.73958,-0.68771 -2.775,-0.72813 -1.04458,-0.0937 -2.6493,-0.10675 -3.59253,0.0823 -1.01251,0.2553 -1.46647,0.40609 -2.4798,0.88609 -2.46001,1.37333 -3.68907,3.79039 -3.77678,6.1113 0,1.6 0.15161,3.13828 0.63161,4.79161 0.53333,1.65333 1.22667,3.17333 2.08,4.56 1.71552,2.41939 4.66724,4.00567 7.68,3.6 1.67393,-0.29409 2.48,-1.22667 3.28,-2.4 0.85333,-1.17333 1.46667,-2.61333 1.84,-4.32 0.37333,-1.70667 0.48,-3.41333 0.32,-5.12 -0.10667,-1.70667 -0.53146,-3.36271 -1.04,-4.64 -0.45261,-1.08861 -0.8931,-2.04773 -2.1675,-2.82317 z"
         style="font-style:normal;font-variant:normal;font-weight:normal;font-stretch:normal;font-size:80px;font-family:SnapHand;-inkscape-font-specification:SnapHand;letter-spacing:0px;fill:#ffffff;fill-opacity:1;stroke:none;stroke-width:1.39999998;stroke-miterlimit:4;stroke-dasharray:none;stroke-opacity:1"
         id="path4392"
         inkscape:connector-curvature="0"
         sodipodi:nodetypes="cccccscsccccccccccccccccccsccc" />
      <path
         d="m 137.24963,404.83857 c 0.26667,-1.54667 0.93333,-2.66667 2,-3.36 1.06667,-0.74667 2.18667,-1.12 3.36,-1.12 1.22667,0 2.26667,0.48 3.12,1.44 0.90667,0.96 1.36,2.26667 1.36,3.92 0.0227,2.41091 0.0392,5.31511 0,8.24 0.96,-0.10667 1.84,-0.26667 2.64,-0.48 0.85333,-0.21333 1.84,-0.32 2.96,-0.32 2.29333,0 4.29333,0.37333 6,1.12 1.70667,0.74667 3.12,1.76 4.24,3.04 1.12,1.28 1.94667,2.77333 2.48,4.48 0.53333,1.70667 0.8,3.49333 0.8,5.36 0,2.34667 -0.37333,4.64 -1.12,6.88 -0.69333,2.24 -1.68,4.24 -2.96,6 -1.22667,1.70667 -2.72,3.09333 -4.48,4.16 -1.70667,1.01333 -3.54667,1.52 -5.52,1.52 -2.61333,0 -5.06667,-0.56 -7.36,-1.68 -0.48,0.37333 -0.93333,0.72 -1.36,1.04 -0.37333,0.32 -0.82667,0.48 -1.36,0.48 -1.22667,0 -2.37333,-0.45333 -3.44,-1.36 -1.06667,-0.90667 -1.6,-2.26667 -1.6,-4.08 0,-2.72 -0.0533,-5.6 -0.16,-8.64 -0.16,-3.04 -0.26667,-6.08 -0.32,-9.12 -0.0533,-3.09333 -0.0267,-6.13333 0.08,-9.12 0.0533,-2.98667 0.26667,-5.78667 0.64,-8.4 z m 9.36,22.56 c -0.0442,2.11167 0.29333,5.17333 1.2,6.56 0.96,1.33333 2.05333,2 3.28,2 0.69333,0 1.33333,-0.21333 1.92,-0.64 0.64,-0.42667 1.17333,-0.98667 1.6,-1.68 0.42667,-0.74667 0.72,-1.57333 0.88,-2.48 0.21333,-0.96 0.25427,-1.92 0.24,-2.88 -0.006,-1.4412 -0.46746,-3.48826 -1.04,-4.56 -0.32,-0.64 -0.8,-1.12 -1.44,-1.44 -0.58667,-0.37333 -1.41333,-0.56 -2.48,-0.56 -0.58667,0 -1.60625,0.10854 -2.24625,0.48187 -0.64,0.32 -1.03188,0.53063 -1.75375,1.03813 -0.12006,1.0842 -0.14813,2.04036 -0.16,4.16 z"
         style="font-style:normal;font-variant:normal;font-weight:normal;font-stretch:normal;font-size:80px;font-family:SnapHand;-inkscape-font-specification:SnapHand;letter-spacing:0px;fill:#ffffff;fill-opacity:1;stroke:none;stroke-width:1.39999998;stroke-miterlimit:4;stroke-dasharray:none;stroke-opacity:1"
         id="path4394"
         inkscape:connector-curvature="0"
         sodipodi:nodetypes="ccsccccssssscccsccsssccccccsccccccsccc" />
      <path
         d="m 167.94338,412.75857 c -0.16,-1.28 0,-2.34667 0.48,-3.2 0.48,-0.85333 1.12,-1.49333 1.92,-1.92 0.8,-0.42667 1.68,-0.64 2.64,-0.64 0.96,-0.0533 1.86667,0.13333 2.72,0.56 0.85333,0.37333 1.54667,0.96 2.08,1.76 0.53333,0.8 0.8,1.78667 0.8,2.96 0,0.32 -0.0533,1.33333 -0.16,3.04 -0.0533,1.65333 -0.08,3.52 -0.08,5.6 v 4.8 c 0.0533,1.65333 0.16,3.2 0.32,4.64 0.22041,2.14571 0.6248,4.48259 3.07375,4.70625 1.99243,0.0884 2.60249,-0.50969 3.34916,-1.20834 0.8,-0.90667 0.96226,-2.02668 1.21596,-3.36001 0.19656,-1.42172 0.36113,-2.72457 0.36113,-4.2179 0.0533,-1.54667 0.08,-2.93333 0.08,-4.16 0,-1.22667 -0.0267,-2.4 -0.08,-3.52 v -3.2 c 0,-1.92 0.29333,-3.38667 0.88,-4.4 0.58667,-1.06667 1.30667,-1.76 2.16,-2.08 0.90667,-0.37333 1.86667,-0.4 2.88,-0.08 1.01333,0.32 1.92,0.90667 2.72,1.76 0.85333,0.8 1.52,1.81333 2,3.04 0.48,1.17333 0.66667,2.50667 0.56,4 0,1.06667 -0.10667,2.21333 -0.32,3.44 -0.16,1.17333 -0.24,2.45333 -0.24,3.84 0,1.86667 0.08,3.6 0.24,5.2 0.21333,1.54667 0.48,3.09333 0.8,4.64 0.37333,1.49333 0.8,3.01333 1.28,4.56 0.53333,1.49333 1.09333,3.12 1.68,4.88 0.32,1.06667 0.48,1.97333 0.48,2.72 0,1.70667 -0.56,3.06667 -1.68,4.08 -1.06667,1.06667 -2.29333,1.6 -3.68,1.6 -1.12,0 -2.08,-0.24 -2.88,-0.72 -0.74667,-0.48 -1.41333,-1.17333 -2,-2.08 -0.53333,-0.85333 -1.01333,-1.89333 -1.44,-3.12 -0.37333,-1.22667 -0.74667,-2.56 -1.12,-4 -1.06667,1.12 -2.29333,2 -3.68,2.64 -1.38667,0.58667 -2.69333,0.88 -3.92,0.88 -1.65333,0 -3.22667,-0.37333 -4.72,-1.12 -1.44,-0.74667 -2.72,-1.76 -3.84,-3.04 -1.12,-1.33333 -2.05333,-2.85333 -2.8,-4.56 -0.74667,-1.76 -1.2,-3.62667 -1.36,-5.6 -0.37333,-1.65333 -0.58667,-3.33333 -0.64,-5.04 -0.10667,-1.76 -0.16,-3.52 -0.16,-5.28 0,-1.54667 0.0267,-3.04 0.08,-4.48 z"
         style="font-style:normal;font-variant:normal;font-weight:normal;font-stretch:normal;font-size:80px;font-family:SnapHand;-inkscape-font-specification:SnapHand;letter-spacing:0px;fill:#ffffff;fill-opacity:1;stroke:none;stroke-width:1.39999998;stroke-miterlimit:4;stroke-dasharray:none;stroke-opacity:1"
         id="path4396"
         inkscape:connector-curvature="0"
         sodipodi:nodetypes="cssccsscsccccccscsccsccccsccccscscccccscccccscc" />
    </g>
    <path
       style="color:#000000;font-style:normal;font-variant:normal;font-weight:normal;font-stretch:normal;font-size:medium;line-height:normal;font-family:sans-serif;font-variant-ligatures:normal;font-variant-position:normal;font-variant-caps:normal;font-variant-numeric:normal;font-variant-alternates:normal;font-feature-settings:normal;text-indent:0;text-align:start;text-decoration:none;text-decoration-line:none;text-decoration-style:solid;text-decoration-color:#000000;letter-spacing:normal;word-spacing:normal;text-transform:none;writing-mode:lr-tb;direction:ltr;text-orientation:mixed;dominant-baseline:auto;baseline-shift:baseline;text-anchor:start;white-space:normal;shape-padding:0;clip-rule:nonzero;display:inline;overflow:visible;visibility:visible;opacity:1;isolation:auto;mix-blend-mode:normal;color-interpolation:sRGB;color-interpolation-filters:linearRGB;solid-color:#000000;solid-opacity:1;vector-effect:none;fill:#ffffff;fill-opacity:1;fill-rule:evenodd;stroke:none;stroke-width:0.84666657;stroke-linecap:round;stroke-linejoin:miter;stroke-miterlimit:4;stroke-dasharray:none;stroke-dashoffset:0;stroke-opacity:1;color-rendering:auto;image-rendering:auto;shape-rendering:auto;text-rendering:auto;enable-background:accumulate"
       d="m 101.89258,124.00391 a 0.42337562,0.42337562 0 1 0 0,0.8457 h 18.55859 a 0.42337562,0.42337562 0 1 0 0,-0.8457 z"
       id="path4327"
       inkscape:connector-curvature="0" />
    <path
       style="color:#000000;font-style:normal;font-variant:normal;font-weight:normal;font-stretch:normal;font-size:medium;line-height:normal;font-family:sans-serif;font-variant-ligatures:normal;font-variant-position:normal;font-variant-caps:normal;font-variant-numeric:normal;font-variant-alternates:normal;font-feature-settings:normal;text-indent:0;text-align:start;text-decoration:none;text-decoration-line:none;text-decoration-style:solid;text-decoration-color:#000000;letter-spacing:normal;word-spacing:normal;text-transform:none;writing-mode:lr-tb;direction:ltr;text-orientation:mixed;dominant-baseline:auto;baseline-shift:baseline;text-anchor:start;white-space:normal;shape-padding:0;clip-rule:nonzero;display:inline;overflow:visible;visibility:visible;opacity:1;isolation:auto;mix-blend-mode:normal;color-interpolation:sRGB;color-interpolation-filters:linearRGB;solid-color:#000000;solid-opacity:1;vector-effect:none;fill:#ffffff;fill-opacity:1;fill-rule:evenodd;stroke:none;stroke-width:0.84666669;stroke-linecap:round;stroke-linejoin:miter;stroke-miterlimit:4;stroke-dasharray:none;stroke-dashoffset:0;stroke-opacity:1;color-rendering:auto;image-rendering:auto;shape-rendering:auto;text-rendering:auto;enable-background:accumulate"
       d="m 149.87109,124.00391 a 0.42337568,0.42337568 0 1 0 0,0.8457 h 18.5586 a 0.42337568,0.42337568 0 1 0 0,-0.8457 z"
       id="path4329"
       inkscape:connector-curvature="0" />
    <g
       aria-label="飛ぶ"
       style="font-style:normal;font-weight:normal;font-size:3.38666677px;line-height:0%;font-family:sans-serif;letter-spacing:0px;word-spacing:0px;display:inline;fill:#ffffff;fill-opacity:1;stroke:none;stroke-width:0.28222224px;stroke-linecap:butt;stroke-linejoin:miter;stroke-opacity:1"
       id="text3375">
      <path
         d="m 108.89692,128.21822 h -3.01656 v -0.43094 h 3.4475 q 0,0.3629 0.0227,0.65775 0.068,0 0.13609,0.0227 l 0.49898,-0.5897 0.34021,0.20413 -0.45362,0.54434 q 0.0227,0 0.63507,0.29485 l -0.18145,0.36289 q -0.43094,-0.27217 -0.90724,-0.43093 0.068,0.38557 0.29486,0.68042 0.22681,0.27217 0.38557,0.27217 0.13609,0 0.27217,-0.45361 l 0.3629,0.29485 q -0.24949,0.74847 -0.63507,0.74847 -0.38557,0 -0.77115,-0.52166 -0.38557,-0.52166 -0.43094,-1.65571 z m -1.1794,4.53618 v -2.38149 h -0.86188 v 0.13608 q 0,1.56499 -0.88455,2.29078 l -0.40826,-0.29486 q 0.4763,-0.43093 0.63506,-0.88455 0.15877,-0.45362 0.18145,-1.11137 v -0.13608 h -0.72579 v -0.43094 h 0.72579 v -0.61238 l -0.31753,0.13608 -0.34021,-0.34021 q 0.95259,-0.34022 1.38353,-0.70311 l 0.34021,0.29485 q -0.20412,0.15877 -0.54434,0.3629 -0.0227,0 -0.0454,0.0227 v 0.83919 h 0.86188 v -1.51962 h 0.4763 v 1.51962 h 0.99796 q 0,0.54434 0.068,0.97528 0.1134,0.0454 0.20413,0.0907 0.24949,-0.29485 0.40825,-0.52166 l 0.34022,0.20413 q -0.15877,0.22681 -0.38558,0.45362 l 0.5897,0.31753 -0.18144,0.34021 q -0.40826,-0.24949 -0.86188,-0.43093 0.0907,0.27217 0.34022,0.54434 0.24949,0.27217 0.40825,0.27217 0.18145,0 0.34022,-0.5897 l 0.36289,0.29485 q -0.24949,0.88455 -0.70311,0.88455 -0.43093,0 -0.88455,-0.56702 -0.43094,-0.5897 -0.4763,-1.83715 h -0.56702 v 2.38149 z"
         style="font-style:normal;font-variant:normal;font-weight:normal;font-stretch:normal;font-size:5.80631351px;line-height:1.25;font-family:'Droid Sans Japanese';-inkscape-font-specification:'Droid Sans Japanese';stroke-width:0.28222224px;fill:#ffffff"
         id="path460" />
      <path
         d="m 116.15482,128.39967 q -0.22681,-0.40826 -0.54435,-0.72579 l 0.3629,-0.22681 q 0.36289,0.31753 0.5897,0.72579 z m -0.61239,0.31753 q -0.22681,-0.38557 -0.5897,-0.72579 l 0.38557,-0.24949 q 0.34022,0.31753 0.58971,0.72579 z m -0.70311,0.24949 q -0.90723,-0.13608 -1.63302,-0.81651 l 0.29485,-0.40826 q 0.65774,0.58971 1.49694,0.72579 z m -2.20005,3.08461 0.24949,-0.45362 q 0.52166,0.36289 0.99796,0.36289 0.27217,0 0.43094,-0.15877 0.15877,-0.15876 0.18145,-0.45361 0,-0.49898 -0.61239,-0.88456 -0.63506,-0.43094 -0.63506,-0.74847 0,-0.36289 0.38557,-0.72579 l 0.43094,0.29485 q -0.31753,0.20413 -0.31753,0.38558 0,0.15877 0.61238,0.56702 0.63507,0.43094 0.63507,1.11137 0,0.54434 -0.31753,0.83919 -0.31754,0.29485 -0.81652,0.29485 -0.68042,0 -1.22477,-0.43093 z m 3.62895,-0.20413 q -0.40826,-0.88456 -1.13405,-1.63303 l 0.40826,-0.29485 q 0.81651,0.81651 1.22477,1.63302 z m -3.12997,-0.9526 q -0.52166,0.24949 -1.45157,1.15673 l -0.34022,-0.43094 q 0.86188,-0.74847 1.49694,-1.17941 z"
         style="font-style:normal;font-variant:normal;font-weight:normal;font-stretch:normal;font-size:5.80631351px;line-height:1.25;font-family:'Droid Sans Japanese';-inkscape-font-specification:'Droid Sans Japanese';stroke-width:0.28222224px;fill:#ffffff"
         id="path462" />
    </g>
    <g
       aria-label="飛ぶ"
       style="font-style:normal;font-weight:normal;font-size:3.38666677px;line-height:0%;font-family:sans-serif;letter-spacing:0px;word-spacing:0px;display:inline;fill:#ffffff;fill-opacity:1;stroke:none;stroke-width:0.28222224px;stroke-linecap:butt;stroke-linejoin:miter;stroke-opacity:1"
       id="text3383">
      <path
         d="m 157.07426,128.21822 h -3.01656 v -0.43094 h 3.4475 q 0,0.3629 0.0227,0.65775 0.068,0 0.13608,0.0227 l 0.49898,-0.5897 0.34022,0.20413 -0.45362,0.54434 q 0.0227,0 0.63507,0.29485 l -0.18145,0.36289 q -0.43094,-0.27217 -0.90724,-0.43093 0.068,0.38557 0.29485,0.68042 0.22681,0.27217 0.38558,0.27217 0.13608,0 0.27217,-0.45361 l 0.36289,0.29485 q -0.24949,0.74847 -0.63506,0.74847 -0.38558,0 -0.77115,-0.52166 -0.38558,-0.52166 -0.43094,-1.65571 z m -1.17941,4.53618 v -2.38149 h -0.86187 v 0.13608 q 0,1.56499 -0.88456,2.29078 l -0.40825,-0.29486 q 0.4763,-0.43093 0.63506,-0.88455 0.15877,-0.45362 0.18145,-1.11137 v -0.13608 h -0.72579 v -0.43094 h 0.72579 v -0.61238 l -0.31753,0.13608 -0.34022,-0.34021 q 0.9526,-0.34022 1.38354,-0.70311 l 0.34021,0.29485 q -0.20413,0.15877 -0.54434,0.3629 -0.0227,0 -0.0454,0.0227 v 0.83919 h 0.86187 v -1.51962 h 0.4763 v 1.51962 h 0.99796 q 0,0.54434 0.068,0.97528 0.1134,0.0454 0.20412,0.0907 0.24949,-0.29485 0.40826,-0.52166 l 0.34021,0.20413 q -0.15876,0.22681 -0.38557,0.45362 l 0.5897,0.31753 -0.18145,0.34021 q -0.40825,-0.24949 -0.86187,-0.43093 0.0907,0.27217 0.34021,0.54434 0.24949,0.27217 0.40826,0.27217 0.18145,0 0.34021,-0.5897 l 0.3629,0.29485 q -0.24949,0.88455 -0.70311,0.88455 -0.43094,0 -0.88456,-0.56702 -0.43093,-0.5897 -0.47629,-1.83715 h -0.56703 v 2.38149 z"
         style="font-style:normal;font-variant:normal;font-weight:normal;font-stretch:normal;font-size:5.80631351px;line-height:1.25;font-family:'Droid Sans Japanese';-inkscape-font-specification:'Droid Sans Japanese';stroke-width:0.28222224px;fill:#ffffff"
         id="path455" />
      <path
         d="m 164.33215,128.39967 q -0.22681,-0.40826 -0.54434,-0.72579 l 0.3629,-0.22681 q 0.36289,0.31753 0.5897,0.72579 z m -0.61238,0.31753 q -0.22681,-0.38557 -0.58971,-0.72579 l 0.38558,-0.24949 q 0.34021,0.31753 0.5897,0.72579 z m -0.70311,0.24949 q -0.90724,-0.13608 -1.63303,-0.81651 l 0.29486,-0.40826 q 0.65774,0.58971 1.49694,0.72579 z m -2.20005,3.08461 0.24949,-0.45362 q 0.52166,0.36289 0.99796,0.36289 0.27217,0 0.43094,-0.15877 0.15877,-0.15876 0.18145,-0.45361 0,-0.49898 -0.61239,-0.88456 -0.63506,-0.43094 -0.63506,-0.74847 0,-0.36289 0.38557,-0.72579 l 0.43094,0.29485 q -0.31753,0.20413 -0.31753,0.38558 0,0.15877 0.61238,0.56702 0.63507,0.43094 0.63507,1.11137 0,0.54434 -0.31754,0.83919 -0.31753,0.29485 -0.81651,0.29485 -0.68043,0 -1.22477,-0.43093 z m 3.62895,-0.20413 q -0.40826,-0.88456 -1.13405,-1.63303 l 0.40826,-0.29485 q 0.81651,0.81651 1.22477,1.63302 z m -3.12997,-0.9526 q -0.52166,0.24949 -1.45158,1.15673 l -0.34021,-0.43094 q 0.86187,-0.74847 1.49694,-1.17941 z"
         style="font-style:normal;font-variant:normal;font-weight:normal;font-stretch:normal;font-size:5.80631351px;line-height:1.25;font-family:'Droid Sans Japanese';-inkscape-font-specification:'Droid Sans Japanese';stroke-width:0.28222224px;fill:#ffffff"
         id="path457" />
    </g>
  </g>
</svg>
