<?xml version="1.0" encoding="UTF-8" standalone="no"?>
<!-- Created with Inkscape (http://www.inkscape.org/) -->

<svg
   xmlns:dc="http://purl.org/dc/elements/1.1/"
   xmlns:cc="http://creativecommons.org/ns#"
   xmlns:rdf="http://www.w3.org/1999/02/22-rdf-syntax-ns#"
   xmlns:svg="http://www.w3.org/2000/svg"
   xmlns="http://www.w3.org/2000/svg"
   xmlns:sodipodi="http://sodipodi.sourceforge.net/DTD/sodipodi-0.dtd"
   xmlns:inkscape="http://www.inkscape.org/namespaces/inkscape"
   id="svg4155"
   version="1.1"
   inkscape:version="0.91 r13725"
   xml:space="preserve"
   width="414.87833"
   height="238.6188"
   viewBox="0 0 414.87833 238.61881"
   sodipodi:docname="ttgdx_logo.svg"><metadata
     id="metadata4161"><rdf:RDF><cc:Work
         rdf:about=""><dc:format>image/svg+xml</dc:format><dc:type
           rdf:resource="http://purl.org/dc/dcmitype/StillImage" /><dc:title></dc:title></cc:Work></rdf:RDF></metadata><defs
     id="defs4159"><clipPath
       clipPathUnits="userSpaceOnUse"
       id="clipPath4169"><path
         d="m 0,858.898 612.288,0 L 612.288,0 0,0 0,858.898 Z"
         id="path4171"
         inkscape:connector-curvature="0" /></clipPath><clipPath
       clipPathUnits="userSpaceOnUse"
       id="clipPath4349"><path
         d="m 0,858.898 612.288,0 L 612.288,0 0,0 0,858.898 Z"
         id="path4351"
         inkscape:connector-curvature="0" /></clipPath><clipPath
       clipPathUnits="userSpaceOnUse"
       id="clipPath4373"><path
         d="m 0,858.898 612.288,0 L 612.288,0 0,0 0,858.898 Z"
         id="path4375"
         inkscape:connector-curvature="0" /></clipPath><clipPath
       clipPathUnits="userSpaceOnUse"
       id="clipPath4393"><path
         d="m 0,858.898 612.288,0 L 612.288,0 0,0 0,858.898 Z"
         id="path4395"
         inkscape:connector-curvature="0" /></clipPath></defs><sodipodi:namedview
     pagecolor="#ffffff"
     bordercolor="#666666"
     borderopacity="1"
     objecttolerance="10"
     gridtolerance="10"
     guidetolerance="10"
     inkscape:pageopacity="0"
     inkscape:pageshadow="2"
     inkscape:window-width="1916"
     inkscape:window-height="1057"
     id="namedview4157"
     showgrid="false"
     fit-margin-top="0"
     fit-margin-left="0"
     fit-margin-right="0"
     fit-margin-bottom="0"
     inkscape:zoom="0.85225482"
     inkscape:cx="534.81122"
     inkscape:cy="182.23604"
     inkscape:window-x="0"
     inkscape:window-y="19"
     inkscape:window-maximized="0"
     inkscape:current-layer="g4389" /><g
     id="g4163"
     inkscape:groupmode="layer"
     inkscape:label="ttg_logo"
     transform="matrix(1.25,0,0,-1.25,-176.668,966.17467)"><g
       id="g4389"><path
         d="m 185.7476,592.9633 -13.699,0 c -0.387,-0.022 -0.708,-0.195 -0.963,-0.524 -0.255,-0.327 -0.443,-0.697 -0.566,-1.106 -0.122,-0.411 -0.184,-0.821 -0.184,-1.23 0,-0.432 0.062,-0.851 0.184,-1.262 0.123,-0.411 0.311,-0.779 0.566,-1.107 0.255,-0.328 0.576,-0.493 0.963,-0.493 l 9.785,0 0,-4.275 -9.601,0 c -1.427,-0.021 -2.605,0.37 -3.532,1.169 -0.928,0.799 -1.59,1.712 -1.988,2.738 -0.397,1.024 -0.596,2.09 -0.596,3.198 0,1.066 0.204,2.112 0.611,3.138 0.408,1.025 1.071,1.938 1.988,2.737 0.917,0.799 2.09,1.22 3.517,1.26 l 0.183,0 c 0.124,0.021 0.246,0.032 0.368,0.032 l 2.202,0 0,4.46 4.127,0 0,-4.46 6.635,0 0,-4.275 z"
         style="fill:#050102;fill-opacity:1;fill-rule:nonzero;stroke:none"
         id="path4471"
         inkscape:connector-curvature="0" /><path
         d="m 206.6328,594.6844 4.129,0 0,-5.843 c -0.021,-1.58 0.377,-3.394 1.192,-5.444 l -4.28,0 c -0.714,1.825 -1.061,3.68 -1.041,5.566 l 0,5.721 z m -0.244,4.337 c 0,0.616 0.214,1.138 0.643,1.569 0.427,0.431 0.948,0.645 1.559,0.645 0.612,0 1.131,-0.214 1.56,-0.645 0.427,-0.431 0.641,-0.953 0.641,-1.569 0,-0.614 -0.214,-1.137 -0.641,-1.568 -0.429,-0.431 -0.948,-0.646 -1.56,-0.646 -0.611,0 -1.132,0.215 -1.559,0.646 -0.429,0.431 -0.643,0.954 -0.643,1.568 m -5.259,0 c 0,0.616 0.213,1.138 0.642,1.569 0.428,0.431 0.947,0.645 1.559,0.645 0.612,0 1.131,-0.214 1.56,-0.645 0.428,-0.431 0.642,-0.953 0.642,-1.569 0,-0.614 -0.214,-1.137 -0.642,-1.568 -0.429,-0.431 -0.948,-0.646 -1.56,-0.646 -0.612,0 -1.131,0.215 -1.559,0.646 -0.429,0.431 -0.642,0.954 -0.642,1.568 m -4.924,-4.306 2.447,0 c 0.122,0 0.244,-0.01 0.367,-0.031 l 0.183,0 c 1.427,-0.041 2.599,-0.395 3.516,-1.061 0.918,-0.667 1.581,-1.42 1.988,-2.26 0.407,-0.842 0.612,-1.692 0.612,-2.554 0,-0.881 -0.199,-1.742 -0.596,-2.583 -0.399,-0.84 -1.06,-1.594 -1.988,-2.261 -0.928,-0.666 -2.105,-0.999 -3.532,-0.999 l -2.997,0 0,4.122 3.18,0 c 0.388,0 0.709,0.096 0.964,0.291 0.255,0.195 0.443,0.427 0.566,0.692 0.122,0.266 0.183,0.524 0.183,0.77 0,0.245 -0.061,0.502 -0.183,0.769 -0.123,0.266 -0.311,0.497 -0.566,0.692 -0.255,0.194 -0.576,0.292 -0.964,0.292 l -3.18,0 0,4.121 z m -4.403,6.398 8.44,0 0,-4.121 -8.44,0 0,4.121 z m 2.293,-6.429 0,-5.721 c 0.02,-1.886 -0.325,-3.741 -1.04,-5.566 l -4.28,0 c 0.815,2.05 1.212,3.864 1.192,5.444 l 0,5.843 4.128,0 z"
         style="fill:#050102;fill-opacity:1;fill-rule:nonzero;stroke:none"
         id="path4475"
         inkscape:connector-curvature="0" /><path
         d="m 234.063,592.9633 -13.7,0 c -0.387,-0.022 -0.708,-0.195 -0.963,-0.524 -0.255,-0.327 -0.443,-0.697 -0.565,-1.106 -0.123,-0.411 -0.184,-0.821 -0.184,-1.23 0,-0.432 0.061,-0.851 0.184,-1.262 0.122,-0.411 0.31,-0.779 0.565,-1.107 0.255,-0.328 0.576,-0.493 0.963,-0.493 l 9.786,0 0,-4.275 -9.603,0 c -1.426,-0.021 -2.604,0.37 -3.531,1.169 -0.928,0.799 -1.59,1.712 -1.987,2.738 -0.399,1.024 -0.597,2.09 -0.597,3.198 0,1.066 0.203,2.112 0.611,3.138 0.408,1.025 1.071,1.938 1.988,2.737 0.918,0.799 2.09,1.22 3.516,1.26 l 0.185,0 c 0.122,0.021 0.244,0.032 0.366,0.032 l 2.202,0 0,4.46 4.128,0 0,-4.46 6.636,0 0,-4.275 z"
         style="fill:#050102;fill-opacity:1;fill-rule:nonzero;stroke:none"
         id="path4479"
         inkscape:connector-curvature="0" /><path
         d="m 254.9482,594.6844 4.129,0 0,-5.843 c -0.022,-1.58 0.377,-3.394 1.192,-5.444 l -4.281,0 c -0.713,1.825 -1.061,3.68 -1.04,5.566 l 0,5.721 z m -0.244,4.337 c 0,0.616 0.214,1.138 0.642,1.569 0.428,0.431 0.949,0.645 1.56,0.645 0.612,0 1.131,-0.214 1.56,-0.645 0.427,-0.431 0.641,-0.953 0.641,-1.569 0,-0.614 -0.214,-1.137 -0.641,-1.568 -0.429,-0.431 -0.948,-0.646 -1.56,-0.646 -0.611,0 -1.132,0.215 -1.56,0.646 -0.428,0.431 -0.642,0.954 -0.642,1.568 m -5.259,0 c 0,0.616 0.213,1.138 0.641,1.569 0.429,0.431 0.948,0.645 1.56,0.645 0.612,0 1.131,-0.214 1.559,-0.645 0.429,-0.431 0.643,-0.953 0.643,-1.569 0,-0.614 -0.214,-1.137 -0.643,-1.568 -0.428,-0.431 -0.947,-0.646 -1.559,-0.646 -0.612,0 -1.131,0.215 -1.56,0.646 -0.428,0.431 -0.641,0.954 -0.641,1.568 m -4.924,-4.306 2.446,0 c 0.122,0 0.245,-0.01 0.368,-0.031 l 0.183,0 c 1.427,-0.041 2.599,-0.395 3.516,-1.061 0.918,-0.667 1.58,-1.42 1.988,-2.26 0.407,-0.842 0.612,-1.692 0.612,-2.554 0,-0.881 -0.199,-1.742 -0.596,-2.583 -0.399,-0.84 -1.061,-1.594 -1.988,-2.261 -0.928,-0.666 -2.105,-0.999 -3.532,-0.999 l -2.997,0 0,4.122 3.18,0 c 0.388,0 0.708,0.096 0.963,0.291 0.255,0.195 0.443,0.427 0.567,0.692 0.122,0.266 0.183,0.524 0.183,0.77 0,0.245 -0.061,0.502 -0.183,0.769 -0.124,0.266 -0.312,0.497 -0.567,0.692 -0.255,0.194 -0.575,0.292 -0.963,0.292 l -3.18,0 0,4.121 z m -4.404,6.398 8.44,0 0,-4.121 -8.44,0 0,4.121 z m 2.294,-6.429 0,-5.721 c 0.02,-1.886 -0.326,-3.741 -1.04,-5.566 l -4.28,0 c 0.815,2.05 1.212,3.864 1.192,5.444 l 0,5.843 4.128,0 z"
         style="fill:#050102;fill-opacity:1;fill-rule:nonzero;stroke:none"
         id="path4483"
         inkscape:connector-curvature="0" /><path
         d="m 281.2471,602.2206 c 0,0.615 0.214,1.138 0.642,1.569 0.428,0.431 0.947,0.646 1.559,0.646 0.612,0 1.132,-0.215 1.56,-0.646 0.428,-0.431 0.642,-0.954 0.642,-1.569 0,-0.615 -0.214,-1.138 -0.642,-1.568 -0.428,-0.432 -0.948,-0.647 -1.56,-0.647 -0.612,0 -1.131,0.215 -1.559,0.647 -0.428,0.43 -0.642,0.953 -0.642,1.568 m 2.813,-3.076 2.324,-5.044 -4.525,0 -2.325,5.044 4.526,0 z m -8.073,3.076 c 0,0.615 0.214,1.138 0.642,1.569 0.429,0.431 0.949,0.646 1.56,0.646 0.612,0 1.131,-0.215 1.559,-0.646 0.429,-0.431 0.642,-0.954 0.642,-1.569 0,-0.615 -0.213,-1.138 -0.642,-1.568 -0.428,-0.432 -0.947,-0.647 -1.559,-0.647 -0.611,0 -1.131,0.215 -1.56,0.647 -0.428,0.43 -0.642,0.953 -0.642,1.568 m -2.11,-2.215 c 1.426,0 2.599,-0.481 3.517,-1.445 0.917,-0.964 1.579,-2.056 1.987,-3.275 0.408,-1.221 0.612,-2.467 0.612,-3.738 0,-1.271 -0.199,-2.517 -0.597,-3.737 -0.397,-1.219 -1.06,-2.311 -1.987,-3.276 -0.928,-0.964 -2.106,-1.486 -3.532,-1.568 l -3.058,0 0,4.122 2.019,0 c 0.815,0.041 1.472,0.312 1.972,0.815 0.5,0.502 0.861,1.071 1.086,1.707 0.224,0.635 0.336,1.281 0.336,1.937 0,0.656 -0.123,1.302 -0.367,1.938 -0.244,0.635 -0.627,1.204 -1.147,1.707 -0.519,0.502 -1.147,0.733 -1.88,0.692 l -3.09,0 0,-7.012 -4.127,0 0,7.012 -3.12,0 0,4.121 3.12,0 0,1.723 4.127,0 0,-1.723 4.129,0 z"
         style="fill:#050102;fill-opacity:1;fill-rule:nonzero;stroke:none"
         id="path4487"
         inkscape:connector-curvature="0" /><path
         inkscape:connector-curvature="0"
         id="path4489"
         style="fill:#050102;fill-opacity:1;fill-rule:nonzero;stroke:none"
         d="m 288.8,594.224 18.776,0 0,-4.121 -18.776,0 0,4.121 z" /><path
         d="m 322.958,587.8876 c -0.225,0.021 -0.413,-0.016 -0.566,-0.107 -0.154,-0.093 -0.265,-0.211 -0.336,-0.354 -0.073,-0.144 -0.107,-0.247 -0.107,-0.308 0,-0.123 0.034,-0.241 0.107,-0.354 0.071,-0.112 0.182,-0.22 0.336,-0.323 0.153,-0.102 0.341,-0.154 0.566,-0.154 l 3.395,0 c 1.079,0 1.792,0.534 2.139,1.6 l -5.534,0 z m -10.917,13.226 16.207,0 c 0.569,0 1.06,-0.155 1.468,-0.461 0.386,-0.329 0.581,-0.718 0.581,-1.169 0,-0.288 -0.082,-0.554 -0.245,-0.8 l -3.975,-2.953 0.887,0 c 0.122,0 0.244,-0.01 0.366,-0.03 l 0.185,0 c 1.018,-0.042 1.986,-0.396 2.904,-1.062 0.917,-0.667 1.58,-1.43 1.987,-2.291 0.408,-0.861 0.612,-1.722 0.612,-2.583 0,-1.169 -0.199,-2.18 -0.596,-3.03 -0.398,-0.851 -1.061,-1.682 -1.987,-2.492 -0.929,-0.811 -2.106,-1.245 -3.533,-1.306 l -3.792,0 c -0.061,0 -0.173,0.009 -0.337,0.03 -1.039,0 -1.946,0.225 -2.72,0.676 -0.776,0.452 -1.32,0.965 -1.636,1.539 -0.317,0.573 -0.474,1.117 -0.474,1.63 0,0.532 0.152,1.101 0.458,1.707 0.306,0.604 0.871,1.117 1.698,1.537 0.826,0.42 1.717,0.611 2.674,0.57 l 5.903,0 c -0.204,1.086 -0.816,1.63 -1.835,1.63 l -10.519,0 0,3.475 4.281,0 2.721,2.122 -11.283,0 0,3.261 z"
         style="fill:#050102;fill-opacity:1;fill-rule:nonzero;stroke:none"
         id="path4493"
         inkscape:connector-curvature="0" /><path
         d="m 353.2002,592.6249 c 0,0.615 0.215,1.138 0.643,1.568 0.427,0.431 0.948,0.646 1.559,0.646 0.612,0 1.132,-0.215 1.56,-0.646 0.427,-0.43 0.641,-0.953 0.641,-1.568 0,-0.615 -0.214,-1.139 -0.641,-1.569 -0.428,-0.431 -0.948,-0.646 -1.56,-0.646 -0.611,0 -1.132,0.215 -1.559,0.646 -0.428,0.43 -0.643,0.954 -0.643,1.569 m -5.259,0 c 0,0.615 0.213,1.138 0.642,1.568 0.429,0.431 0.948,0.646 1.559,0.646 0.612,0 1.131,-0.215 1.56,-0.646 0.429,-0.43 0.643,-0.953 0.643,-1.568 0,-0.615 -0.214,-1.139 -0.643,-1.569 -0.429,-0.431 -0.948,-0.646 -1.56,-0.646 -0.611,0 -1.13,0.215 -1.559,0.646 -0.429,0.43 -0.642,0.954 -0.642,1.569 m -11.467,8.488 19.448,0 0,-4.12 -6.269,0 c -0.774,-0.043 -1.447,-0.339 -2.018,-0.892 -0.591,-0.554 -1.04,-1.185 -1.345,-1.893 -0.307,-0.707 -0.501,-1.43 -0.581,-2.168 -0.082,-0.738 -0.036,-1.466 0.137,-2.184 0.173,-0.717 0.585,-1.353 1.238,-1.907 1.02,-0.861 2.345,-1.476 3.976,-1.845 l -1.835,-3.937 c -2.283,0.656 -3.894,1.465 -4.832,2.43 -1.121,1.025 -1.906,2.183 -2.353,3.475 -0.449,1.292 -0.603,2.615 -0.46,3.968 0.184,2.009 0.806,3.557 1.866,4.644 0.102,0.103 0.214,0.205 0.336,0.309 l -7.308,0 0,4.12 z"
         style="fill:#050102;fill-opacity:1;fill-rule:nonzero;stroke:none"
         id="path4497"
         inkscape:connector-curvature="0" /><path
         inkscape:connector-curvature="0"
         id="path4499"
         style="fill:#050102;fill-opacity:1;fill-rule:nonzero;stroke:none"
         d="m 378.123,596.993 -11.315,0 0,4.121 11.315,0 0,-4.121 z m -12.6,-9.843 5.2,0 c 0.386,0.02 0.707,0.112 0.962,0.277 0.254,0.163 0.444,0.347 0.566,0.553 0.122,0.205 0.184,0.421 0.184,0.646 0,0.225 -0.062,0.44 -0.184,0.646 -0.122,0.205 -0.312,0.389 -0.566,0.554 -0.255,0.164 -0.576,0.255 -0.962,0.277 l -4.893,0 c -1.428,0.039 -2.604,0.373 -3.532,0.999 -0.929,0.625 -1.586,1.342 -1.973,2.152 -0.388,0.811 -0.581,1.635 -0.581,2.477 l 0,5.352 4.158,0 0,-5.352 0.032,0 c 0,-0.144 0.061,-0.343 0.183,-0.6 0.122,-0.256 0.31,-0.467 0.567,-0.631 0.253,-0.163 0.575,-0.256 0.962,-0.276 l 4.892,0 c 1.427,-0.021 2.605,-0.344 3.532,-0.97 0.928,-0.624 1.591,-1.342 1.989,-2.152 0.397,-0.81 0.595,-1.636 0.595,-2.476 0,-0.8 -0.203,-1.605 -0.611,-2.414 -0.408,-0.811 -1.07,-1.529 -1.988,-2.154 -0.917,-0.626 -2.09,-0.958 -3.517,-0.999 l -0.183,0 c -0.122,-0.021 -0.244,-0.031 -0.368,-0.031 l -4.464,0 0,4.122 z" /><path
         d="m 393.5342,594.162 -10.184,0 0,3.292 10.58,0 0.459,0 c 0.837,-0.021 1.576,-0.282 2.218,-0.786 0.642,-0.502 1.152,-1.112 1.529,-1.829 0.377,-0.718 0.658,-1.471 0.841,-2.261 0.183,-0.79 0.275,-1.584 0.275,-2.384 0,-1.087 -0.157,-2.147 -0.474,-3.183 -0.315,-1.035 -0.842,-1.958 -1.575,-2.768 -0.733,-0.811 -1.672,-1.246 -2.814,-1.307 l -1.13,0 -5.412,0 0,3.29 5.687,0 c 0.611,0.041 1.131,0.277 1.559,0.708 0.428,0.431 0.729,0.933 0.903,1.507 0.172,0.575 0.26,1.159 0.26,1.753 0,0.595 -0.093,1.174 -0.276,1.739 -0.183,0.563 -0.485,1.065 -0.902,1.507 -0.418,0.44 -0.933,0.681 -1.544,0.722"
         style="fill:#050102;fill-opacity:1;fill-rule:nonzero;stroke:none"
         id="path4503"
         inkscape:connector-curvature="0" /><path
         d="m 405.3672,588.3187 c -1.427,0.861 -2.15,2.111 -2.171,3.752 0.021,1.62 0.749,2.85 2.187,3.691 1.437,0.841 3.419,1.692 5.947,2.553 l 11.682,3.66 0,-4.43 -9.572,-2.768 c -0.917,-0.287 -1.784,-0.564 -2.598,-0.83 -0.817,-0.266 -1.571,-0.584 -2.264,-0.954 -0.713,-0.266 -1.111,-0.574 -1.191,-0.922 0.08,-0.369 0.473,-0.712 1.175,-1.03 0.704,-0.318 1.463,-0.611 2.28,-0.877 0.814,-0.267 1.681,-0.544 2.598,-0.83 l 9.572,-2.861 0,-4.428 -11.682,3.752 c -2.487,0.86 -4.476,1.701 -5.963,2.522"
         style="fill:#050102;fill-opacity:1;fill-rule:nonzero;stroke:none"
         id="path4507"
         inkscape:connector-curvature="0" /><path
         d="m 435.0918,591.7328 c -0.388,0 -0.725,-0.098 -1.01,-0.292 -0.285,-0.196 -0.495,-0.432 -0.627,-0.708 -0.133,-0.277 -0.198,-0.549 -0.198,-0.815 0,-0.246 0.065,-0.507 0.198,-0.784 0.132,-0.277 0.342,-0.519 0.627,-0.724 0.285,-0.204 0.622,-0.306 1.01,-0.306 l 3.913,0 c 0.387,0 0.725,0.102 1.009,0.306 0.286,0.205 0.5,0.452 0.643,0.74 0.061,0.163 0.112,0.316 0.153,0.46 l 0,0.616 c -0.041,0.163 -0.092,0.338 -0.153,0.522 -0.143,0.266 -0.357,0.497 -0.643,0.693 -0.284,0.194 -0.622,0.292 -1.009,0.292 l -3.913,0 z m -7.615,8.335 13.333,0 0,1.661 4.129,0 0,-1.661 3.515,0 0,-3.783 -3.515,0 0,-13.348 -4.129,0 0,2.336 c -0.714,-0.43 -1.54,-0.665 -2.477,-0.707 l -2.569,0 c -1.794,0.062 -3.15,0.389 -4.067,0.984 -0.917,0.595 -1.58,1.277 -1.988,2.045 -0.408,0.77 -0.611,1.544 -0.611,2.323 0,0.819 0.198,1.609 0.596,2.369 0.397,0.758 1.06,1.44 1.988,2.045 0.928,0.605 2.105,0.918 3.532,0.938 l 3.669,0 c 0.693,0 1.335,-0.195 1.927,-0.585 l 0,1.6 -13.333,0 0,3.783 z"
         style="fill:#050102;fill-opacity:1;fill-rule:nonzero;stroke:none"
         id="path4511"
         inkscape:connector-curvature="0" /><path
         d="m 214.0869,655.2421 c -2.459,0 -4.28,-1.098 -5.461,-3.292 -1.183,-2.194 -1.772,-5.14 -1.772,-8.838 0,-1.283 0.083,-2.54 0.253,-3.773 0.168,-1.233 0.469,-2.343 0.904,-3.328 0.434,-0.986 1.024,-1.775 1.772,-2.367 0.747,-0.591 1.7,-0.887 2.857,-0.887 2.072,0 3.808,1.035 5.208,3.107 1.398,2.07 2.097,5.324 2.097,9.763 0,1.231 -0.072,2.428 -0.216,3.587 -0.145,1.157 -0.434,2.182 -0.868,3.069 -0.435,0.888 -1.038,1.602 -1.809,2.145 -0.772,0.542 -1.761,0.814 -2.965,0.814 m -6.293,-32.323 c -1.881,0 -3.678,0.346 -5.389,1.035 -1.712,0.691 -3.207,1.776 -4.485,3.255 -1.278,1.48 -2.291,3.353 -3.038,5.622 -0.748,2.267 -1.121,5.003 -1.121,8.209 0,1.431 0.097,3.021 0.29,4.771 0.192,1.75 0.53,3.514 1.012,5.288 0.482,1.776 1.157,3.501 2.025,5.178 0.868,1.676 1.965,3.168 3.292,4.475 1.325,1.306 2.916,2.355 4.773,3.143 1.857,0.789 4.038,1.183 6.547,1.183 2.41,0 4.351,-0.432 5.822,-1.294 1.471,-0.863 2.399,-2.354 2.785,-4.474 0.096,1.924 0.193,3.599 0.29,5.03 0.095,1.43 0.18,2.76 0.253,3.994 0.072,1.231 0.156,2.464 0.253,3.698 0.096,1.231 0.192,2.636 0.29,4.216 0.047,1.083 0.168,1.725 0.361,1.923 0.096,0.098 0.217,0.159 0.361,0.185 0.145,0.024 0.41,0.037 0.796,0.037 l 2.821,0 c 1.447,0 2.652,-0.173 3.617,-0.518 0.964,-0.346 1.736,-0.813 2.315,-1.405 0.578,-0.592 0.987,-1.27 1.229,-2.034 0.24,-0.765 0.362,-1.566 0.362,-2.404 -0.193,-2.467 -0.362,-4.723 -0.506,-6.768 -0.145,-2.046 -0.315,-4.377 -0.507,-6.989 -0.193,-2.616 -0.386,-5.314 -0.578,-8.1 -0.194,-2.786 -0.387,-5.547 -0.579,-8.284 -0.193,-2.736 -0.387,-5.251 -0.579,-7.544 -0.193,-2.293 -0.35,-4.266 -0.47,-5.917 -0.121,-1.653 -0.206,-2.75 -0.253,-3.292 -0.097,-0.592 -0.217,-0.987 -0.362,-1.184 -0.145,-0.197 -0.555,-0.295 -1.23,-0.295 l -2.603,0 c -1.013,0 -1.966,0.085 -2.857,0.258 -0.894,0.172 -1.664,0.469 -2.315,0.888 -0.651,0.419 -1.157,0.986 -1.519,1.701 -0.362,0.715 -0.542,1.64 -0.542,2.774 -0.869,-1.874 -2.183,-3.402 -3.943,-4.586 -1.761,-1.183 -3.967,-1.775 -6.618,-1.775"
         style="fill:#e07f68;fill-opacity:1;fill-rule:nonzero;stroke:none"
         id="path4515"
         inkscape:connector-curvature="0" /><path
         d="m 256.6167,655.2421 c -1.061,0 -1.965,-0.308 -2.712,-0.925 -0.748,-0.617 -1.375,-1.394 -1.881,-2.329 -0.506,-0.938 -0.893,-1.973 -1.157,-3.107 -0.266,-1.136 -0.471,-2.219 -0.615,-3.254 2.989,0.048 5.413,0.566 7.269,1.553 1.856,0.986 2.785,2.391 2.785,4.216 0,0.986 -0.302,1.873 -0.904,2.662 -0.603,0.789 -1.532,1.184 -2.785,1.184 m -1.375,-32.323 c -2.122,0 -4.23,0.271 -6.329,0.813 -2.097,0.543 -3.978,1.48 -5.641,2.811 -1.664,1.332 -3.027,3.108 -4.087,5.326 -1.061,2.219 -1.591,5.005 -1.591,8.358 0,1.232 0.096,2.712 0.289,4.438 0.192,1.725 0.566,3.501 1.121,5.326 0.554,1.824 1.326,3.635 2.315,5.435 0.987,1.8 2.278,3.414 3.87,4.846 1.591,1.428 3.519,2.588 5.786,3.475 2.266,0.889 4.966,1.331 8.101,1.331 2.507,0 4.629,-0.294 6.366,-0.887 1.736,-0.591 3.134,-1.394 4.195,-2.404 1.06,-1.011 1.832,-2.181 2.315,-3.512 0.481,-1.332 0.723,-2.762 0.723,-4.291 0,-2.268 -0.447,-4.192 -1.338,-5.769 -0.893,-1.578 -2.051,-2.897 -3.472,-3.957 -1.423,-1.06 -3.002,-1.886 -4.738,-2.477 -1.736,-0.593 -3.448,-1.049 -5.135,-1.369 -1.689,-0.322 -3.245,-0.518 -4.666,-0.591 -1.423,-0.075 -2.521,-0.112 -3.291,-0.112 0,-0.937 0.132,-1.862 0.398,-2.774 0.264,-0.912 0.662,-1.713 1.193,-2.403 0.531,-0.691 1.23,-1.258 2.098,-1.701 0.868,-0.444 1.928,-0.666 3.183,-0.666 1.253,0 2.23,0.209 2.929,0.629 0.698,0.418 1.266,0.887 1.7,1.405 0.434,0.518 0.807,0.986 1.121,1.406 0.313,0.418 0.735,0.628 1.266,0.628 0.24,0 0.662,-0.062 1.265,-0.185 0.603,-0.124 1.218,-0.383 1.845,-0.777 0.626,-0.395 1.181,-0.936 1.664,-1.627 0.481,-0.691 0.723,-1.578 0.723,-2.662 0,-1.431 -0.434,-2.663 -1.302,-3.698 -0.868,-1.037 -1.989,-1.876 -3.363,-2.515 -1.375,-0.642 -2.906,-1.11 -4.594,-1.407 -1.688,-0.296 -3.327,-0.443 -4.919,-0.443"
         style="fill:#e3b26c;fill-opacity:1;fill-rule:nonzero;stroke:none"
         id="path4519"
         inkscape:connector-curvature="0" /><path
         d="m 285.4048,622.9926 c -2.99,0 -5.135,0.814 -6.437,2.442 -1.302,1.627 -1.953,4.313 -1.953,8.062 0,0.592 0.036,1.33 0.108,2.219 0.073,0.887 0.168,2.033 0.29,3.44 0.119,1.404 0.276,3.143 0.47,5.213 0.192,2.072 0.397,4.586 0.614,7.545 0.218,2.959 0.458,6.434 0.724,10.429 0.264,3.994 0.543,8.628 0.831,13.905 0.048,1.084 0.169,1.725 0.362,1.923 0.145,0.148 0.531,0.223 1.158,0.223 l 2.821,0 c 1.446,0 2.651,-0.173 3.616,-0.518 0.964,-0.347 1.736,-0.814 2.315,-1.406 0.579,-0.591 0.988,-1.27 1.229,-2.033 0.241,-0.766 0.362,-1.567 0.362,-2.404 0,-0.988 -0.061,-2.405 -0.181,-4.254 -0.121,-1.848 -0.278,-3.932 -0.47,-6.25 -0.193,-2.317 -0.386,-4.734 -0.579,-7.248 -0.193,-2.515 -0.386,-4.919 -0.578,-7.211 -0.193,-2.294 -0.35,-4.353 -0.47,-6.176 -0.121,-1.825 -0.181,-3.207 -0.181,-4.143 0,-1.283 0.228,-2.194 0.687,-2.736 0.458,-0.544 0.951,-0.924 1.483,-1.147 0.53,-0.222 1.024,-0.37 1.483,-0.443 0.457,-0.075 0.687,-0.235 0.687,-0.482 0,-1.084 -0.121,-2.157 -0.362,-3.217 -0.241,-1.061 -0.675,-2.022 -1.302,-2.885 -0.627,-0.863 -1.482,-1.554 -2.567,-2.071 -1.085,-0.518 -2.472,-0.777 -4.16,-0.777"
         style="fill:#7bc169;fill-opacity:1;fill-rule:nonzero;stroke:none"
         id="path4523"
         inkscape:connector-curvature="0" /><path
         d="m 312.6729,658.0531 c 0,-1.037 -0.084,-2.491 -0.253,-4.364 -0.169,-1.874 -0.338,-3.822 -0.506,-5.844 -0.17,-2.022 -0.338,-3.919 -0.507,-5.695 -0.169,-1.776 -0.253,-3.057 -0.253,-3.846 0,-1.727 0.422,-3.07 1.266,-4.031 0.843,-0.962 2.014,-1.442 3.509,-1.442 1.302,0 2.397,0.529 3.291,1.59 0.891,1.06 1.614,2.441 2.17,4.142 0.554,1.7 1,3.635 1.338,5.806 0.337,2.169 0.59,4.364 0.759,6.582 0.168,2.22 0.314,4.376 0.434,6.472 0.12,2.096 0.253,3.908 0.398,5.437 0.047,0.395 0.192,0.74 0.434,1.035 0.24,0.296 0.626,0.445 1.157,0.445 l 2.605,0 c 1.493,0 2.712,-0.161 3.652,-0.481 0.941,-0.321 1.688,-0.776 2.242,-1.369 0.554,-0.592 0.941,-1.319 1.158,-2.181 0.216,-0.864 0.326,-1.862 0.326,-2.996 0,-0.739 -0.037,-1.788 -0.11,-3.144 -0.072,-1.356 -0.205,-3.23 -0.397,-5.62 -0.193,-2.393 -0.423,-5.426 -0.688,-9.099 -0.265,-3.673 -0.59,-8.222 -0.976,-13.646 -0.097,-1.035 -0.205,-1.653 -0.325,-1.85 -0.121,-0.197 -0.519,-0.296 -1.194,-0.296 l -2.821,0 c -1.446,0 -2.64,0.172 -3.58,0.518 -0.941,0.345 -1.7,0.789 -2.278,1.332 -0.58,0.542 -0.99,1.184 -1.23,1.922 -0.242,0.741 -0.387,1.504 -0.434,2.294 -0.724,-1.283 -1.532,-2.367 -2.423,-3.254 -0.893,-0.889 -1.822,-1.59 -2.785,-2.108 -0.965,-0.518 -1.953,-0.889 -2.966,-1.11 -1.013,-0.222 -2.001,-0.333 -2.966,-0.333 -1.833,0 -3.471,0.308 -4.918,0.925 -1.447,0.615 -2.665,1.442 -3.653,2.478 -0.989,1.035 -1.748,2.267 -2.279,3.698 -0.53,1.429 -0.795,2.958 -0.795,4.586 0,0.64 0.036,1.689 0.109,3.143 0.072,1.454 0.168,3.094 0.289,4.919 0.119,1.823 0.253,3.76 0.397,5.806 0.145,2.045 0.278,3.981 0.398,5.806 0.12,1.824 0.241,3.427 0.363,4.808 0.119,1.38 0.204,2.367 0.252,2.958 0.097,0.888 0.29,1.492 0.579,1.813 0.289,0.32 0.771,0.481 1.446,0.481 l 2.316,0 c 1.493,0 2.723,-0.149 3.688,-0.445 0.964,-0.295 1.724,-0.715 2.279,-1.257 0.553,-0.543 0.94,-1.196 1.157,-1.96 0.218,-0.765 0.325,-1.64 0.325,-2.625"
         style="fill:#6887c4;fill-opacity:1;fill-rule:nonzero;stroke:none"
         id="path4527"
         inkscape:connector-curvature="0" /><path
         d="m 382.9805,625.2123 c 0,-0.691 -0.398,-1.135 -1.194,-1.333 -0.796,-0.197 -1.916,-0.294 -3.364,-0.294 -1.833,0 -3.398,0.097 -4.701,0.294 -1.302,0.198 -2.399,0.493 -3.291,0.89 -0.892,0.393 -1.627,0.874 -2.207,1.442 -0.577,0.566 -1.037,1.245 -1.373,2.033 l -6.076,12.944 c -1.689,-2.663 -3.352,-5.338 -4.99,-8.025 -1.641,-2.688 -3.425,-5.535 -5.354,-8.542 -0.097,-0.149 -0.447,-0.471 -1.049,-0.963 -0.604,-0.492 -1.242,-0.739 -1.917,-0.739 -0.675,0 -1.435,0.382 -2.278,1.146 -0.845,0.764 -1.628,1.676 -2.352,2.737 -0.722,1.061 -1.326,2.194 -1.807,3.402 -0.484,1.209 -0.724,2.256 -0.724,3.145 0,1.035 0.531,2.28 1.592,3.734 1.06,1.454 2.387,2.959 3.978,4.512 1.591,1.553 3.314,3.07 5.171,4.549 1.857,1.48 3.606,2.785 5.246,3.92 -1.978,3.451 -3.835,6.644 -5.57,9.579 -1.737,2.933 -3.232,5.51 -4.486,7.729 -1.254,2.218 -2.242,3.994 -2.965,5.325 -0.724,1.332 -1.085,2.119 -1.085,2.368 0,0.245 0.409,0.492 1.23,0.738 0.819,0.247 2.001,0.37 3.544,0.37 1.88,0 3.532,-0.123 4.956,-0.37 1.42,-0.246 2.651,-0.665 3.688,-1.257 1.036,-0.592 1.941,-1.38 2.712,-2.366 0.771,-0.987 1.471,-2.195 2.099,-3.625 l 3.977,-9.245 c 1.013,1.331 1.905,2.588 2.676,3.773 0.771,1.183 1.567,2.414 2.388,3.698 0.819,1.281 1.711,2.661 2.675,4.141 0.965,1.479 2.099,3.181 3.401,5.104 0.433,0.591 1.036,0.888 1.808,0.888 0.868,0 1.747,-0.408 2.64,-1.221 0.892,-0.814 1.699,-1.776 2.423,-2.885 0.724,-1.11 1.313,-2.243 1.772,-3.402 0.458,-1.159 0.687,-2.084 0.687,-2.774 0,-0.937 -0.567,-2.121 -1.699,-3.549 -1.134,-1.432 -2.521,-2.912 -4.16,-4.439 -1.639,-1.529 -3.375,-3.02 -5.208,-4.475 -1.833,-1.456 -3.448,-2.651 -4.845,-3.587 0.578,-1.183 1.325,-2.553 2.241,-4.105 0.916,-1.554 1.893,-3.181 2.931,-4.882 1.036,-1.701 2.085,-3.402 3.145,-5.103 1.061,-1.701 2.014,-3.292 2.858,-4.771 0.842,-1.48 1.53,-2.799 2.061,-3.957 0.529,-1.159 0.796,-2.01 0.796,-2.552"
         style="fill:#926bac;fill-opacity:1;fill-rule:nonzero;stroke:none"
         id="path4531"
         inkscape:connector-curvature="0" /><path
         d="m 406.6328,655.2421 c -1.061,0 -1.965,-0.308 -2.712,-0.925 -0.748,-0.617 -1.374,-1.394 -1.881,-2.329 -0.506,-0.938 -0.893,-1.973 -1.157,-3.107 -0.266,-1.136 -0.471,-2.219 -0.615,-3.254 2.99,0.048 5.413,0.566 7.269,1.553 1.856,0.986 2.784,2.391 2.784,4.216 0,0.986 -0.3,1.873 -0.904,2.662 -0.602,0.789 -1.53,1.184 -2.784,1.184 m -1.374,-32.323 c -2.122,0 -4.232,0.271 -6.329,0.813 -2.098,0.543 -3.979,1.48 -5.643,2.811 -1.663,1.332 -3.026,3.108 -4.086,5.326 -1.062,2.219 -1.591,5.005 -1.591,8.358 0,1.232 0.096,2.712 0.289,4.438 0.192,1.725 0.566,3.501 1.121,5.326 0.554,1.824 1.326,3.635 2.314,5.435 0.988,1.8 2.279,3.414 3.87,4.846 1.592,1.428 3.52,2.588 5.787,3.475 2.267,0.889 4.966,1.331 8.102,1.331 2.506,0 4.629,-0.294 6.365,-0.887 1.736,-0.591 3.134,-1.394 4.195,-2.404 1.061,-1.011 1.832,-2.181 2.314,-3.512 0.481,-1.332 0.725,-2.762 0.725,-4.291 0,-2.268 -0.447,-4.192 -1.339,-5.769 -0.893,-1.578 -2.05,-2.897 -3.472,-3.957 -1.424,-1.06 -3.002,-1.886 -4.737,-2.477 -1.737,-0.593 -3.448,-1.049 -5.137,-1.369 -1.688,-0.322 -3.243,-0.518 -4.664,-0.591 -1.424,-0.075 -2.521,-0.112 -3.292,-0.112 0,-0.937 0.132,-1.862 0.398,-2.774 0.265,-0.912 0.662,-1.713 1.194,-2.403 0.529,-0.691 1.229,-1.258 2.096,-1.701 0.87,-0.444 1.929,-0.666 3.184,-0.666 1.253,0 2.23,0.209 2.929,0.629 0.698,0.418 1.265,0.887 1.7,1.405 0.435,0.518 0.807,0.986 1.121,1.406 0.313,0.418 0.734,0.628 1.266,0.628 0.241,0 0.662,-0.062 1.266,-0.185 0.602,-0.124 1.217,-0.383 1.844,-0.777 0.626,-0.395 1.182,-0.936 1.664,-1.627 0.481,-0.691 0.723,-1.578 0.723,-2.662 0,-1.431 -0.434,-2.663 -1.302,-3.698 -0.867,-1.037 -1.989,-1.876 -3.363,-2.515 -1.374,-0.642 -2.906,-1.11 -4.593,-1.407 -1.69,-0.296 -3.328,-0.443 -4.919,-0.443"
         style="fill:#b872ac;fill-opacity:1;fill-rule:nonzero;stroke:none"
         id="path4535"
         inkscape:connector-curvature="0" /><path
         d="m 152.6704,760.5326 c 0,0 0.613,13.56 7.966,12.328 7.354,-1.233 4.29,-12.02 4.29,-12.02 0,0 10.418,-0.308 9.192,-7.396 -1.225,-7.088 -12.869,-4.931 -12.869,-4.931 0,0 -3.983,-21.573 11.031,-32.668 0,0 4.391,-4.006 0,-8.629 0,0 -4.902,-3.698 -11.031,1.849 0,0 -15.422,11.609 -11.643,39.242 0,0 -8.272,0.301 -8.272,6.37 0,7.19 11.336,5.855 11.336,5.855"
         style="fill:#b63935;fill-opacity:1;fill-rule:nonzero;stroke:none"
         id="path4539"
         inkscape:connector-curvature="0" /><path
         d="m 203.9155,737.2816 c -0.386,-8.297 -5.404,-10.135 -5.404,-10.135 0,0 -5.211,-1.89 -8.829,1.576 -3.619,3.465 -4.439,8.244 -4.439,8.244 0,0 -1.254,5.829 2.026,9.504 3.281,3.676 7.865,3.676 7.865,3.676 5.211,0.263 9.167,-4.568 8.781,-12.865 m -8.451,23.97 c 0,0 -9.703,0 -16.648,-7.191 -6.945,-7.191 -4.29,-18.593 -4.29,-18.593 0,0 1.737,-9.349 9.397,-16.129 7.659,-6.78 18.69,-3.082 18.69,-3.082 0,0 10.622,3.596 11.439,19.827 0.817,16.231 -7.558,25.682 -18.588,25.168"
         style="fill:#b63935;fill-opacity:1;fill-rule:nonzero;stroke:none"
         id="path4543"
         inkscape:connector-curvature="0" /><path
         d="m 238.4624,732.642 c 0,0 -1.379,-6.318 -5.822,-5.855 -4.443,0.462 -5.362,6.78 -4.443,14.33 0,0 3.218,4.315 8.273,0.616 3.777,-2.762 1.992,-9.091 1.992,-9.091 m 7.66,15.872 c -7.66,7.242 -17.465,2.773 -17.465,2.773 0,0 -0.191,7.848 -0.306,11.557 -0.154,4.931 -4.903,4.931 -4.903,4.931 0,0 -5.515,0.154 -6.434,-6.78 -0.919,-6.934 0.153,-40.064 0.153,-40.064 1.685,-6.472 7.507,-4.314 7.507,-4.314 0,0 1.072,1.232 2.757,0.153 1.725,-1.103 6.894,-1.078 6.894,-1.078 10.418,0.462 14.248,12.173 14.248,12.173 0,0 5.209,13.406 -2.451,20.649"
         style="fill:#b63935;fill-opacity:1;fill-rule:nonzero;stroke:none"
         id="path4547"
         inkscape:connector-curvature="0" /><path
         d="m 252.4033,755.1395 c 0,0 0.153,4.777 5.822,4.931 5.668,0.154 6.128,-4.931 6.128,-4.931 0,0 0.306,-13.406 0,-18.799 -0.307,-5.393 1.072,-8.63 4.595,-8.784 3.524,-0.154 5.209,5.085 4.749,8.784 -0.459,3.698 0.154,16.642 0.154,16.642 0,0 0,4.622 5.209,5.085 5.208,0.462 6.894,-6.472 7.047,-8.013 0.153,-1.541 -0.766,-16.488 0.153,-19.57 0.919,-3.082 2.384,-9.97 3.371,-11.403 1.378,-2.003 1.991,-9.245 -2.758,-10.786 -5.361,-1.739 -9.498,3.852 -10.111,10.786 0,0 -4.443,-4.314 -10.418,-4.16 0,0 -11.63,0.954 -13.175,15.717 -1.532,14.639 -0.766,24.501 -0.766,24.501"
         style="fill:#b63935;fill-opacity:1;fill-rule:nonzero;stroke:none"
         id="path4551"
         inkscape:connector-curvature="0" /><path
         d="m 335.2842,760.5326 c 0,0 0.612,13.56 7.966,12.328 7.354,-1.233 4.29,-12.02 4.29,-12.02 0,0 10.418,-0.308 9.192,-7.396 -1.225,-7.088 -12.869,-4.931 -12.869,-4.931 0,0 -3.983,-21.573 11.03,-32.668 0,0 4.392,-4.006 0,-8.629 0,0 -4.902,-3.698 -11.03,1.849 0,0 -15.422,11.609 -11.643,39.242 0,0 -8.273,0.301 -8.273,6.37 0,7.19 11.337,5.855 11.337,5.855"
         style="fill:#b63935;fill-opacity:1;fill-rule:nonzero;stroke:none"
         id="path4555"
         inkscape:connector-curvature="0" /><path
         d="m 386.5283,737.2816 c -0.386,-8.297 -5.403,-10.135 -5.403,-10.135 0,0 -5.211,-1.89 -8.829,1.576 -3.619,3.465 -4.439,8.244 -4.439,8.244 0,0 -1.255,5.829 2.026,9.504 3.281,3.676 7.865,3.676 7.865,3.676 5.211,0.263 9.167,-4.568 8.78,-12.865 m -8.45,23.97 c 0,0 -9.703,0 -16.649,-7.191 -6.944,-7.191 -4.289,-18.593 -4.289,-18.593 0,0 1.737,-9.349 9.397,-16.129 7.659,-6.78 18.689,-3.082 18.689,-3.082 0,0 10.622,3.596 11.44,19.827 0.817,16.231 -7.558,25.682 -18.588,25.168"
         style="fill:#b63935;fill-opacity:1;fill-rule:nonzero;stroke:none"
         id="path4559"
         inkscape:connector-curvature="0" /><path
         d="m 421.0752,732.642 c 0,0 -1.378,-6.318 -5.821,-5.855 -4.443,0.462 -5.362,6.78 -4.443,14.33 0,0 3.217,4.315 8.273,0.616 3.776,-2.762 1.991,-9.091 1.991,-9.091 m 7.66,15.872 c -7.66,7.242 -17.465,2.773 -17.465,2.773 0,0 -0.19,7.848 -0.305,11.557 -0.154,4.931 -4.903,4.931 -4.903,4.931 0,0 -5.515,0.154 -6.434,-6.78 -0.919,-6.934 0.153,-40.064 0.153,-40.064 1.685,-6.472 7.507,-4.314 7.507,-4.314 0,0 1.072,1.232 2.757,0.153 1.724,-1.103 6.894,-1.078 6.894,-1.078 10.417,0.462 14.247,12.173 14.247,12.173 0,0 5.209,13.406 -2.451,20.649"
         style="fill:#b63935;fill-opacity:1;fill-rule:nonzero;stroke:none"
         id="path4563"
         inkscape:connector-curvature="0" /><path
         d="m 435.0166,755.1395 c 0,0 0.153,4.777 5.821,4.931 5.669,0.154 6.129,-4.931 6.129,-4.931 0,0 0.306,-13.406 0,-18.799 -0.306,-5.393 1.072,-8.63 4.596,-8.784 3.523,-0.154 5.209,5.085 4.749,8.784 -0.46,3.698 0.153,16.642 0.153,16.642 0,0 0,4.622 5.209,5.085 5.208,0.462 6.894,-6.472 7.047,-8.013 0.153,-1.541 -0.766,-16.488 0.153,-19.57 0.919,-3.082 2.384,-9.97 3.371,-11.403 1.378,-2.003 1.991,-9.245 -2.758,-10.786 -5.361,-1.739 -9.498,3.852 -10.112,10.786 0,0 -4.442,-4.314 -10.417,-4.16 0,0 -11.629,0.954 -13.174,15.717 -1.533,14.639 -0.767,24.501 -0.767,24.501"
         style="fill:#b63935;fill-opacity:1;fill-rule:nonzero;stroke:none"
         id="path4567"
         inkscape:connector-curvature="0" /><path
         d="m 295.0439,705.6757 c 0,0 -2.656,2.876 -6.128,-12.738 -3.473,-15.615 12.256,-8.629 12.256,-8.629 0,0 7.558,4.725 9.601,7.601 2.042,2.877 6.536,11.917 6.536,11.917 0,0 0.817,3.287 2.043,0 0,0 3.472,-2.671 1.633,-13.355 -1.837,-10.683 4.903,-7.191 4.903,-7.191 0,0 10.826,3.493 11.234,6.164 0.409,2.671 -7.353,-1.644 -9.805,-1.644 0,0 -2.042,0 -0.612,3.699 1.43,3.698 1.634,11.3 -4.086,16.642 -5.719,5.342 -6.128,3.287 -9.395,-4.315 -3.269,-7.602 -4.494,-10.684 -6.129,-12.122 -1.634,-1.438 -14.502,-10.273 -13.481,0.205 1.021,10.479 1.838,11.506 1.43,13.766"
         style="fill:#241916;fill-opacity:1;fill-rule:nonzero;stroke:none"
         id="path4571"
         inkscape:connector-curvature="0" /><path
         d="m 299.5376,719.1332 c 0,-1.078 -0.869,-1.952 -1.94,-1.952 -1.072,0 -1.941,0.874 -1.941,1.952 0,1.078 0.869,1.952 1.941,1.952 1.071,0 1.94,-0.874 1.94,-1.952"
         style="fill:#241916;fill-opacity:1;fill-rule:nonzero;stroke:none"
         id="path4575"
         inkscape:connector-curvature="0" /><path
         d="m 344.8848,713.0721 c 5.515,16.642 8.987,18.08 8.987,18.08 4.086,2.055 -8.783,-29.175 -8.783,-29.175 0,0 -5.72,-5.547 -0.204,11.095 m 18.588,-16.025 c 0,0 -1.634,1.849 -4.698,-2.466 -3.064,-4.315 -13.074,-8.629 -14.503,-4.109 -1.43,4.52 -1.022,6.163 -1.022,6.163 0,0 7.15,4.726 13.278,23.217 6.128,18.491 1.225,17.259 0.817,17.67 0,0 -7.354,4.314 -14.299,-12.328 -6.944,-16.642 -3.881,-34.311 -3.881,-34.311 0,0 2.656,-9.862 11.235,-5.548 8.579,4.315 14.094,9.451 13.073,11.712"
         style="fill:#241916;fill-opacity:1;fill-rule:nonzero;stroke:none"
         id="path4579"
         inkscape:connector-curvature="0" /><path
         d="m 164.7222,693.9647 80.889,0"
         style="fill:none;stroke:#b44946;stroke-width:3;stroke-linecap:round;stroke-linejoin:miter;stroke-miterlimit:10;stroke-dasharray:none;stroke-opacity:1"
         id="path4583"
         inkscape:connector-curvature="0" /><path
         d="m 369.3965,693.9647 80.89,0"
         style="fill:none;stroke:#b44946;stroke-width:3;stroke-linecap:round;stroke-linejoin:miter;stroke-miterlimit:10;stroke-dasharray:none;stroke-opacity:1"
         id="path4587"
         inkscape:connector-curvature="0" /><path
         d="m 268.1123,658.9491 c 0,0 -7.064,1.036 5.151,21.02 0,0 2.649,5.921 2.649,0.888 0,0 1.325,-25.017 -7.8,-21.908 m 3.679,41.004 c -0.441,-0.444 -2.354,-2.664 -5.887,-5.625 -3.532,-2.961 -2.501,-0.888 -2.501,-0.888 3.973,8.882 7.505,9.918 9.124,9.326 1.619,-0.592 -0.736,-2.813 -0.736,-2.813 m 12.018,-3.523 c -3.412,-2.184 -3.997,-2.709 -4.081,-2.835 l 1.221,11.875 c 0,0 -0.408,2.26 -3.064,1.644 -2.655,-0.617 -3.268,-3.288 -3.268,-3.288 0,0 -1.838,5.753 -9.601,-1.232 -7.762,-6.986 -8.579,-16.642 -5.106,-16.642 3.472,0 8.375,4.314 14.707,10.478 l 0.204,-7.602 c 0,0 -26.35,-31.024 -6.945,-35.544 19.405,-4.52 13.073,36.366 13.073,36.366 0,0 5.924,5.753 7.149,6.78 1.226,1.027 0.205,2.876 -4.289,0"
         style="fill:#241916;fill-opacity:1;fill-rule:nonzero;stroke:none"
         id="path4591"
         inkscape:connector-curvature="0" /></g></g></svg>